<svg width="959" height="535" fill="none" xmlns="http://www.w3.org/2000/svg"><g clip-path="url(#a)"><path d="M324.7 127.2V112a2.7 2.7 0 0 0-2.6-2.7h-4a2.4 2.4 0 0 1-2.3-2 53.6 53.6 0 0 0-6.7-16.1 2.5 2.5 0 0 1 .3-3.1l2.7-2.8a2.7 2.7 0 0 0 0-3.8L301.5 71a2.7 2.7 0 0 0-3.8 0l-2.8 2.7a2.5 2.5 0 0 1-3 .3 53.1 53.1 0 0 0-16.4-6.7 2.5 2.5 0 0 1-1.9-2.4V61a2.7 2.7 0 0 0-.8-2 2.7 2.7 0 0 0-1.9-.7h-15a2.7 2.7 0 0 0-2.7 2.7v3.9a2.5 2.5 0 0 1-1.8 2.4A53.1 53.1 0 0 0 235 74a2.5 2.5 0 0 1-3.1-.3l-2.8-2.8a2.7 2.7 0 0 0-3.7 0l-10.7 10.7a2.7 2.7 0 0 0 0 3.8l2.7 2.7a2.5 2.5 0 0 1 .3 3.1 53.2 53.2 0 0 0-6.7 16.3 2.4 2.4 0 0 1-2.4 1.9h-4a2.7 2.7 0 0 0-2.4 1.6 2.7 2.7 0 0 0-.2 1v15.2a2.7 2.7 0 0 0 1.7 2.5l1 .2h3.9a2.4 2.4 0 0 1 2.4 1.8 53.5 53.5 0 0 0 6.7 16.4 2.5 2.5 0 0 1-.3 3l-2.8 2.8a2.7 2.7 0 0 0 0 3.8l10.7 10.6a2.7 2.7 0 0 0 3.8 0l2.7-2.7a2.5 2.5 0 0 1 3.1-.3 53.2 53.2 0 0 0 16.3 6.7 2.5 2.5 0 0 1 1.9 2.4v3.9a2.7 2.7 0 0 0 2.7 2.7h15a2.7 2.7 0 0 0 2.7-2.7v-4a2.5 2.5 0 0 1 1.9-2.3 53.6 53.6 0 0 0 16.3-6.7 2.5 2.5 0 0 1 3 .3l2.8 2.7a2.7 2.7 0 0 0 3.8 0l10.7-10.6a2.7 2.7 0 0 0 0-3.8l-2.8-2.7a2.5 2.5 0 0 1-.3-3.1 53.7 53.7 0 0 0 6.7-16.4 2.4 2.4 0 0 1 2.4-1.8h3.9c.3 0 .7 0 1-.2a2.7 2.7 0 0 0 1.5-1.5c.2-.3.2-.6.2-1zm-61.3 35a42.5 42.5 0 0 1-39.3-26.3 42.6 42.6 0 0 1 9.2-46.3 42.5 42.5 0 0 1 65.5 6.4 42.6 42.6 0 0 1 7.1 23.6 42.5 42.5 0 0 1-42.5 42.6z" stroke="#DEE3FC" stroke-width=".8" stroke-miterlimit="10"/><path d="M394.1 178.3V168a1.8 1.8 0 0 0-1.8-1.9h-2.6a1.7 1.7 0 0 1-1.7-1.2 36.7 36.7 0 0 0-4.6-11.2 1.7 1.7 0 0 1 .3-2l1.8-2a1.8 1.8 0 0 0 0-2.5l-7.2-7.3a1.8 1.8 0 0 0-2-.4 1.8 1.8 0 0 0-.6.4l-1.9 1.9a1.7 1.7 0 0 1-2 .2 36.8 36.8 0 0 0-11.2-4.6 1.7 1.7 0 0 1-1.3-1.6v-2.6a1.8 1.8 0 0 0-1.8-1.9h-10.3a1.8 1.8 0 0 0-1.3.6 1.8 1.8 0 0 0-.5 1.3v2.6a1.6 1.6 0 0 1-1.3 1.6A36.7 36.7 0 0 0 333 142a1.7 1.7 0 0 1-2.1-.2L329 140a1.8 1.8 0 0 0-2.6 0l-7.2 7.2a1.8 1.8 0 0 0 0 2.6l1.8 1.9a1.7 1.7 0 0 1 .2 2 36.2 36.2 0 0 0-4.6 11.2 1.7 1.7 0 0 1-1.6 1.3h-2.7a1.8 1.8 0 0 0-1.8 1.8v10.3a1.8 1.8 0 0 0 1.8 1.8h2.8a1.7 1.7 0 0 1 1.6 1.3 36.6 36.6 0 0 0 4.6 11.1 1.7 1.7 0 0 1-.2 2.1l-1.9 1.9a1.8 1.8 0 0 0 0 2.6l7.3 7.3a1.8 1.8 0 0 0 2.6 0l1.8-2a1.7 1.7 0 0 1 2.1-.1 36.4 36.4 0 0 0 11.2 4.5 1.7 1.7 0 0 1 1.2 1.7v2.6a1.8 1.8 0 0 0 1.9 1.9h10.3a1.8 1.8 0 0 0 1.8-1.9v-2.6a1.7 1.7 0 0 1 1.3-1.7 36.2 36.2 0 0 0 11-4.5 1.7 1.7 0 0 1 2.2.2l1.8 1.9a1.8 1.8 0 0 0 2.6 0l7.3-7.3a1.8 1.8 0 0 0 0-2.6l-1.9-1.9a1.7 1.7 0 0 1-.2-2 36.7 36.7 0 0 0 4.6-11.2 1.7 1.7 0 0 1 1.6-1.3h2.7a1.8 1.8 0 0 0 1.2-.5 1.8 1.8 0 0 0 .5-1.3zm-41.7 22.2a27.4 27.4 0 0 1-19.4-46.7 27.4 27.4 0 0 1 46.7 19.3 27.4 27.4 0 0 1-8 19.4 27.3 27.3 0 0 1-19.3 8z" fill="#DEE3FC"/><path d="M200.5 450.6a5 5 0 0 0 5-5 5 5 0 1 0-10 0 5 5 0 0 0 5 5zm667.9-136.2a5 5 0 1 0 0-10 5 5 0 0 0 0 10zm-10-178a5 5 0 1 0 0-10 5 5 0 0 0 0 10zM679.2 74a3.1 3.1 0 1 0 0-6.3 3.1 3.1 0 0 0 0 6.3zM220 29.2a3.1 3.1 0 0 1-2 2.9 3.1 3.1 0 1 1-1.1-6 3.1 3.1 0 0 1 3 3zm69.2 192.6a3.1 3.1 0 1 1-3.1-3.2 3.1 3.1 0 0 1 3.1 3.2zM174.5 450.6a3.1 3.1 0 0 1-3.8 3 3.1 3.1 0 0 1-1.6-.8 3.1 3.1 0 0 1 .5-4.8 3.1 3.1 0 0 1 1.8-.5 3.1 3.1 0 0 1 3 3zm620.8 3a5 5 0 1 0 0-10 5 5 0 0 0 0 10zm106 0a5 5 0 1 0 0-10 5 5 0 0 0 0 10zm-595.4-433a5 5 0 1 0 0-10 5 5 0 0 0 0 10zm344 221.8a6.7 6.7 0 0 1-11.4 4.7 6.7 6.7 0 0 1-1.4-7.2 6.7 6.7 0 0 1 12.8 2.5zM158 160a6.7 6.7 0 1 1-13.3 0 6.7 6.7 0 0 1 13.3 0z" fill="#A4AFFF"/><path d="M139.2 50h-8.5a1 1 0 0 0-1 1v8.4c0 .5.5 1 1 1h8.5a1 1 0 0 0 1-1V51a1 1 0 0 0-1-1zm13.8 0h-8.4a1 1 0 0 0-1 1v8.4c0 .5.4 1 1 1h8.4a1 1 0 0 0 1-1V51a1 1 0 0 0-1-1zm13.8 0h-8.4a1 1 0 0 0-1 1v8.4c0 .5.5 1 1 1h8.4a1 1 0 0 0 1-1V51a1 1 0 0 0-1-1z" fill="#fff"/><path d="M843.8 413.3h-8.4a1 1 0 0 0-1 1v8.4c0 .5.5 1 1 1h8.4a1 1 0 0 0 1-1v-8.4a1 1 0 0 0-1-1zm13.8 0h-8.4a1 1 0 0 0-1 1v8.4c0 .5.5 1 1 1h8.4a1 1 0 0 0 1-1v-8.4a1 1 0 0 0-1-1zm13.9 0H863a1 1 0 0 0-1 1v8.4c0 .5.4 1 1 1h8.4a1 1 0 0 0 1-1v-8.4a1 1 0 0 0-1-1zM204 407.6h-8.4a1 1 0 0 0-1 1v8.4c0 .6.5 1 1 1h8.4a1 1 0 0 0 1-1v-8.4a1 1 0 0 0-1-1zm13.8 0h-8.4a1 1 0 0 0-1 1v8.4c0 .6.5 1 1 1h8.4a1 1 0 0 0 1-1v-8.4a1 1 0 0 0-1-1zm13.9 0h-8.4a1 1 0 0 0-1 1v8.4c0 .6.4 1 1 1h8.4a1 1 0 0 0 1-1v-8.4a1 1 0 0 0-1-1z" fill="#DEE3FC"/><path d="M579.1.6H380c-17.4 0-31.4 14-31.4 31.4v443.5c0 17.3 14 31.4 31.4 31.4h199.2c17.4 0 31.4-14 31.4-31.4V32c0-17.4-14-31.4-31.4-31.4z" fill="#3945BA"/><path d="M578.1 5H380.9a27.5 27.5 0 0 0-27.5 27.6v439.6a27.5 27.5 0 0 0 27.5 27.5h197.2a27.5 27.5 0 0 0 27.5-27.5V32.6A27.5 27.5 0 0 0 578.1 5z" fill="#fff"/><path d="M594.6 31.7v439.1a18.6 18.6 0 0 1-18.7 18.7H383.1a18.6 18.6 0 0 1-18.7-18.7V31.7A18.6 18.6 0 0 1 383.1 13h32.1a4.7 4.7 0 0 1 4.2 2.6l3.4 6.9a9.2 9.2 0 0 0 8.3 5H528a9.2 9.2 0 0 0 8.2-5l3.5-6.9a4.7 4.7 0 0 1 4.2-2.6h32.1a18.6 18.6 0 0 1 18.7 18.7z" fill="#DEE3FC"/><path d="M520.1 19.6h-78a3.3 3.3 0 0 1-3.2-3.3 3.3 3.3 0 0 1 2-3c.4-.2.8-.3 1.3-.3h78a3.3 3.3 0 1 1 0 6.6z" fill="#DEE3FC"/><path d="M564 388.3H390.5c-6.8 0-12.3 5.5-12.3 12.3V462c0 6.8 5.5 12.3 12.3 12.3H564c6.8 0 12.3-5.5 12.3-12.3v-61.3c0-6.8-5.5-12.3-12.3-12.3zM555.2 203h-86a8.9 8.9 0 0 0-9 9v42.5a8.9 8.9 0 0 0 9 8.9h86a8.9 8.9 0 0 0 8.9-9V212a8.9 8.9 0 0 0-9-8.9z" stroke="#698BD1" stroke-linecap="round" stroke-linejoin="round" stroke-dasharray="2.84 2.84"/><path d="M573.7 277.8H396c-5.8 0-10.6 4.8-10.6 10.6v75c0 5.9 4.8 10.6 10.6 10.6h177.7c5.9 0 10.6-4.7 10.6-10.6v-75c0-5.8-4.7-10.6-10.6-10.6z" fill="#4B709B"/><path d="M576.3 280.7v75a10.6 10.6 0 0 1-3 7.4 10.6 10.6 0 0 1-7.6 3.1h-177a10.6 10.6 0 0 1-10.5-10.5v-75a10.6 10.6 0 0 1 10.6-10.6h177a10.6 10.6 0 0 1 10.5 10.6z" fill="#7FB5F4"/><path d="M446.6 292h-52a7.2 7.2 0 0 0-7.2 7.1v52.1a7.2 7.2 0 0 0 7.1 7.2h52.1a7.2 7.2 0 0 0 7.2-7.2v-52a7.2 7.2 0 0 0-7.2-7.2z" fill="#fff"/><path d="M508.4 300.4h-45.9a2.3 2.3 0 0 1-1.6-3.9 2.3 2.3 0 0 1 1.6-.6h46a2.3 2.3 0 0 1 2.2 2.2 2.3 2.3 0 0 1-2.3 2.3zm-20.9 9h-25a2.3 2.3 0 0 1-1.6-.7 2.3 2.3 0 0 1-.5-.7 2.3 2.3 0 0 1 2-3.1h25.1a2.3 2.3 0 0 1 2.3 2.2 2.3 2.3 0 0 1-.7 1.6 2.3 2.3 0 0 1-1.6.7zm76.8 0h-67.6a2.2 2.2 0 0 1-1.6-.7 2.2 2.2 0 0 1-.7-1.6 2.2 2.2 0 0 1 .7-1.6 2.3 2.3 0 0 1 1.6-.6h67.6a2.3 2.3 0 0 1 2.1 3.1 2.2 2.2 0 0 1-1.2 1.2 2.3 2.3 0 0 1-.9.2zm-63.1 9h-38.7a2.3 2.3 0 0 1-2.3-2.2 2.3 2.3 0 0 1 2.3-2.3h38.7a2.3 2.3 0 0 1 2.2 2.3 2.3 2.3 0 0 1-2.2 2.2zm32.8 0h-24.3a2.3 2.3 0 0 1-1.6-.7 2.3 2.3 0 0 1-.7-1.5 2.3 2.3 0 0 1 2.3-2.3H534a2.3 2.3 0 0 1 2.3 2.3 2.3 2.3 0 0 1-2.3 2.2zm30.3 0h-22.4a2.3 2.3 0 0 1-2.2-2.2 2.3 2.3 0 0 1 2.2-2.3h22.4a2.3 2.3 0 0 1 2.3 2.3 2.3 2.3 0 0 1-2.3 2.2zm0 9H462.5a2.3 2.3 0 0 1-2.3-2.2 2.3 2.3 0 0 1 2.3-2.3h101.8a2.3 2.3 0 0 1 2.3 2.3 2.3 2.3 0 0 1-2.3 2.2zm-45.8 9h-56a2.3 2.3 0 0 1-2.3-2.2 2.3 2.3 0 0 1 2.3-2.3h56a2.3 2.3 0 0 1 2.3 2.3 2.3 2.3 0 0 1-2.3 2.3zm45.8 0h-36.7a2.3 2.3 0 0 1-1.6-.6 2.3 2.3 0 0 1-.7-1.6 2.3 2.3 0 0 1 2.3-2.3h36.7a2.3 2.3 0 0 1 2.3 2.4 2.3 2.3 0 0 1-2.3 2.2zm-68.9 9h-32.9a2.3 2.3 0 0 1-2.3-2.2 2.3 2.3 0 0 1 2.3-2.2h33a2.3 2.3 0 0 1 2.2 2.2 2.3 2.3 0 0 1-2.3 2.3zm41.9 0h-33a2.3 2.3 0 0 1-2.2-2.2 2.3 2.3 0 0 1 2.2-2.2h33a2.3 2.3 0 0 1 2.2 2.2 2.3 2.3 0 0 1-2.2 2.3zm27 0h-19.1a2.3 2.3 0 0 1-2.3-2.2 2.3 2.3 0 0 1 2.3-2.2h19.1a2.3 2.3 0 0 1 2.3 2.2 2.3 2.3 0 0 1-2.3 2.3zm-55.9 9.1h-45.9a2.3 2.3 0 0 1-2.3-2.3 2.3 2.3 0 0 1 2.3-2.2h46a2.3 2.3 0 0 1 2.2 2.2 2.3 2.3 0 0 1-2.3 2.3zm55.9-54.1h-45.9a2.3 2.3 0 0 1-2.3-2.3 2.3 2.3 0 0 1 2.3-2.2h45.9a2.3 2.3 0 0 1 2.1 3.1 2.2 2.2 0 0 1-1.2 1.2 2.3 2.3 0 0 1-.9.2z" fill="#B2C1F9"/><path d="M576.3 280.7v3.1h-198v-3.1a10.6 10.6 0 0 1 10.5-10.6h177a10.6 10.6 0 0 1 10.5 10.6z" fill="#308CCE"/><path d="M539 277.2a2.5 2.5 0 0 1-1.5 2.3c-.5.1-1 .2-1.5 0a2.5 2.5 0 0 1-.8-4.4 2.5 2.5 0 0 1 3.8 2zm12.5 0a2.5 2.5 0 0 1-1.5 2.3 2.5 2.5 0 0 1-3.2-3.3 2.5 2.5 0 0 1 2.3-1.5 2.4 2.4 0 0 1 2.4 2.5zm12.6 0a2.5 2.5 0 0 1-1.5 2.3 2.5 2.5 0 0 1-3.4-1.8 2.5 2.5 0 0 1 1-2.6c.5-.2 1-.4 1.4-.4a2.4 2.4 0 0 1 1.8.7 2.4 2.4 0 0 1 .7 1.8z" fill="#DEE3FC"/><path d="M439.5 203.1h-39.2c-5.8 0-10.5 4.7-10.5 10.5v39.2c0 5.9 4.7 10.6 10.5 10.6h39.2c5.8 0 10.6-4.7 10.6-10.6v-39.2c0-5.8-4.8-10.5-10.6-10.5z" stroke="#4981D6" stroke-width=".9" stroke-miterlimit="10"/><path d="m410.5 224.5-8.6 8.7 8.7 8.8m18.7-17.5 8.7 8.7-8.7 8.8m-5.3-17.5-8.1 17.5" stroke="#4981D6" stroke-width="1.7" stroke-linecap="round" stroke-linejoin="round"/><path d="M564.3 44h-174a12 12 0 0 0-12 12v122.6a12 12 0 0 0 12 12h174a12 12 0 0 0 12-12V56a12 12 0 0 0-12-12z" fill="#B2C1F9"/><path d="M536.2 111.4a28.7 28.7 0 1 0 0-57.4 28.7 28.7 0 0 0 0 57.4z" fill="#F0F4FF"/><path d="M494.7 190.7H390.3a12 12 0 0 1-12-12v-19.4l45.6-79.1a6.2 6.2 0 0 1 10.7 0l34.5 59.7 25.6 44.4a6 6 0 0 1 0 6.4z" fill="#fff"/><path d="M539.7 190.7h-99.9l29.3-50.8 15.8-27.4a5.6 5.6 0 0 1 9.7 0l45 78.2z" fill="#F0F4FF"/><path d="M737.7 418.5h-77v115.7h77V418.5z" fill="#3B86BC"/><path d="M737.7 534.2h29.5V418.5h-29.5v115.7z" fill="#4981D6"/><path d="M763.6 423h-21.7v3.6h21.7V423zm0 7.9h-21.7v3.7h21.7v-3.7zm0 7.9h-21.7v3.7h21.7v-3.7zm0 8h-21.7v3.6h21.7v-3.7zm0 7.9h-21.7v3.7h21.7v-3.7zm0 7.9h-21.7v3.7h21.7v-3.7zm0 8h-21.7v3.6h21.7v-3.7zm0 7.9h-21.7v3.7h21.7v-3.7zm0 7.9h-21.7v3.7h21.7v-3.7zm0 8h-21.7v3.6h21.7v-3.7zm0 7.9h-21.7v3.6h21.7v-3.6zm0 7.9h-21.7v3.7h21.7v-3.7zm0 8h-21.7v3.6h21.7v-3.7zm0 7.8h-21.7v3.7h21.7V526z" fill="#B2C1F9"/><path d="M648.2 534.2h39.2s2.1-7-2.6-15.6c0 0-3.2 2.5-12.6.8a41.9 41.9 0 0 1-6.6 4.6c-2.8 1.4-18.4 4.4-17.4 10.2z" fill="#281616"/><path d="M651 423.9c2.5 15 14.1 66 19.1 96.2a46.1 46.1 0 0 0 15.9-.8c-.5-10.5-1.4-35.7-1.3-46.7.2-18.6 1-43.2-7.1-56.7l-27.6 2.2a79.8 79.8 0 0 0 .5 3.5l.5 2.3z" fill="#002C54"/><path d="M577.5 534.2h39.1s2.2-7-2.5-15.6c0 0-3.2 2.5-12.6.8a41.9 41.9 0 0 1-6.7 4.6c-2.7 1.4-18.4 4.4-17.3 10.2z" fill="#281616"/><path d="M600.3 519.2a45 45 0 0 0 15.5 1.4c2-12.1 5.4-38.8 8.3-51.3 4.6-19.4 9-46 6-55.6l-27.1-6.8c-.1.8-2.3 82.6-2.7 112.3z" fill="#052635"/><path d="M708.3 379c-.5-5.3-1.2-9.2-1.2-9.2l-30.3 7.3-25.7 6c-9.6 2-21 4.6-31.3 7-11.4 2.5-19 11.2-16.4 22.6l2.8 13.9c16-.3 91-7.4 97.4-10.7 7.2-3.6 9.4-16.6 4.7-36.8z" fill="#052635"/><path d="M753.5 379a41.8 41.8 0 0 0-3.2-11l-28.3 9.2-25.7 5.9a9042.8 9042.8 0 0 0-31.2 7c-11.4 2.6-19 11.2-16.5 22.7l2.9 13.8c15.9-.2 82.6-2.5 97.3-10.6 7.1-4 9.5-16.7 4.7-37z" fill="#002C54"/><path d="M668.7 335.6s13.4-6 17.2 0c2 3.4.6 9.6-4 12.2a316 316 0 0 1-55 19.7 61.6 61.6 0 0 0-2.7-7 128.6 128.6 0 0 0 21.9-12.2 138.6 138.6 0 0 1 22.6-12.7z" fill="#E5918F"/><path d="m672 293.6-11.5 46s1.2 11.7 13 6c11.7-5.8 19.5-42.4 19.5-42.4l-21-9.6z" fill="#E5918F"/><path d="m691.6 319.4-4.1-1.2c-1.3-.3-2.7-.7-3.9-1.2a64.8 64.8 0 0 1-16.9-8.2 121 121 0 0 1 11.6-32.2l.3-.5a28.9 28.9 0 0 1 8-8.4l1-.6 1.4 24 .2 2.5 2.4 25.8z" fill="#fff"/><path d="m691.6 319.4-4.1-1.2c-1.3-.3-2.7-.7-3.9-1.2 2.3-16.2 4.5-26.4 4.5-26.4l1.1 3 2.4 25.8z" fill="#C7E5F2"/><path d="M759.7 277.8c-.2 7.1-1.4 18.5-2.6 30a608.7 608.7 0 0 0-1 10.8c-.1 2.2-3.4 14-3.6 16-.5 10.1-5.5 17.6-.8 33a24 24 0 0 1 1.4 7c0 1-1.4 2.1-2 2.4a32 32 0 0 1-10.4 2.5 270.4 270.4 0 0 1-29 1.4c-10 0-25-1.6-27-4.2-1.7-2.3 0-5.6.7-10.3 3.7-21 2.4-31.9 2.2-47v-1.1c-.4-23.4-2-43.3-.9-50.5l1-.7a79.9 79.9 0 0 1 4.7-3l.4-.2 1.4-.8.5-.2a111.7 111.7 0 0 1 11.2-4.4l1-.4a100.7 100.7 0 0 1 20.1 1 115.3 115.3 0 0 1 15.2 2.8 31.2 31.2 0 0 1 12 8.3 40.3 40.3 0 0 1 5.5 7.6z" fill="#fff"/><path d="M751.6 367.5a24 24 0 0 1 1.4 7c0 1.1-1.4 2.2-1.9 2.5a32 32 0 0 1-10.5 2.5c2-.2 5.3-3.2 5.3-6 0-2-2.5-14.9-1.8-23.3s2-21.7-.6-32.4c-2.5-10.7-5-24.7-5-24.7L753 302l4 6a618.3 618.3 0 0 0-1 10.8c-.2 2.1-9.2 33.5-4.5 48.8z" fill="#C7E5F2"/><path d="M687.3 216.1s1.3 15.3 6.3 16.3c5.1 1 3.9-5.4 3.9-5.4l-.7-7.3-9.5-3.6z" fill="#002C54"/><path d="M710.7 271.5c-10-1.2-6.2-10.8-4.9-13l2.2-.7c.2-.1 0 0 0 0 .4-.3.6-.7.8-1.2 1-2.5.5-7.6.5-8v-.8l.4-1.8 5.3-4 11-8.8s-3 14.6-.6 23.7a3.4 3.4 0 0 0 1.5 2.2c.3.2.7.4 1.1.4 2.7 1.2-1 14-17.3 12z" fill="#E5918F"/><path d="M719.4 242.4a16.5 16.5 0 0 1-10.6 14.2c1-2.6.5-7.6.5-8l4.4-3.4 5.7-2.8z" fill="#CC6362"/><path d="M689.7 218.3s2.3 31.7 10.9 34.4a22.3 22.3 0 0 0 18.7-9.5c2.3-3 5.2-3.7 6-7.4 1.6-5.9 3.7-17 1-23.5-3.9-9.5-36.2-17-36.6 6z" fill="#E5918F"/><path d="M726.4 207c-.1-5.8-6-8-6-8-5.8-2.6-17.8-1.4-30.3 1.3-2.9.7-6.5-1.1-8.6.3-2.4 1.7 0 9.5 0 9.5 4.8 14.5 22.5 9.8 27.8 8 1.3 3.8 1 9 4.2 11.6 1.8 1.5 5 1.6 8.1 1 .4.8 1.9 1.6 2.2 2.5 1 3.4.8 8.7.8 12.8l1.5-.7c.2-1.1 15.7-37.8.3-38.3z" fill="#002C54"/><path d="M698.5 229c.5 2.6-.8 5-3 5.4-2 .3-4-1.5-4.5-4.2-.4-2.6.9-5 3-5.4 2-.3 4 1.5 4.5 4.2zm10.4-2c.4 2.7-.9 5-3 5.4-2 .4-4-1.4-4.5-4.1-.4-2.7.8-5 3-5.4 2-.4 4 1.5 4.5 4.1z" stroke="#fff" stroke-width=".5" stroke-miterlimit="10"/><path d="M698.5 229s.5-.8 2.9-.6m7.5-.7 8.9-1.5" stroke="#fff" stroke-width=".5" stroke-miterlimit="10"/><path d="M718.5 237.5c6.1 2.3 8-12.7 2.2-13.4-4.4-.5-4.5 5.7-4.5 5.7s-1.2 6.3 2.3 7.7z" fill="#E5918F"/><g opacity=".5" fill="#CC6362"><path d="M720.5 226.4c-2 2.3-1.6 5-1.3 7.8-1.9-2.3-2-6.7 1.3-7.8z"/><path d="M721.5 229.3a3 3 0 0 0-2.5 2.3l-1-.3a3.5 3.5 0 0 1 3.5-2z"/></g><path d="M777 341.7c-2.7 3.1-12.8 5.4-17.6 1-1.5-1.3-3.3-4.9-5-9.4a294.4 294.4 0 0 1-8.5-28.5l22.8-11.7s3 13.1 5.4 25.6v.4c.9 4 1.6 7.9 2.2 11.3a.7.7 0 0 1 0 .2c.7 3.7 1 7.4.7 11.1z" fill="#E5918F"/><path d="M737.3 288.8c2.2 9.2 9.1 26.5 9.1 26.5a36 36 0 0 0 16.7-2 30.7 30.7 0 0 0 10.6-6.9s-4.6-12.8-8.7-22a44.4 44.4 0 0 0-7.5-13.1 36.2 36.2 0 0 0-9-6.7l-11.2 24.2z" fill="#fff"/><path d="m766 294.8-13.3-5.7-10.5-27.1s2 .5 4.4 1.6h.3l.3.2c2.2 1 11 6.2 17.1 25l.2.5 1.3 4.8.1.3.2.4z" fill="#fff"/><path d="M777 341.7c-.2 1.7-.6 2.9-1.4 3.3l-2.2 1.3a112.2 112.2 0 0 1-14 7.3 509.1 509.1 0 0 1-49.3 17.7 56.4 56.4 0 0 0-3-6.9 128.8 128.8 0 0 0 21.4-13c10.6-8.2 25.9-18 25.9-18l3.8-4.5s13.7-12.7 16-10.1v.3c.3 1.3 1.4 6.2 2.1 11.3a.7.7 0 0 1 0 .3c.7 3.6 1 7.3.7 11z" fill="#E5918F"/><path d="M708.7 363.6a8.4 8.4 0 0 1-5.4 1c-1.5-.2-2.2-.9-3.3-1a24.8 24.8 0 0 1-5.5-1.4c-1.5-.7-2-.8-2 .7s3 2.8 3.7 3.2a7.4 7.4 0 0 1 1.9 1.9c.1.1-4.8 2.7-6.2 2.2a3.9 3.9 0 0 0-.2 1.9c.3.6 1.3.9 1.4 1.2 0 .3-.3 1 0 1.5s1.1.6 1.4 1.4c.4 1 0 1 .3 1.8.2.9 1.4 1 1.6 1.5.2.4.1 1 .6 1.3.5.3 5-1.1 6.5-1.8 1.7-.7 6-7 10.8-9l-5.6-6.4z" fill="#E5918F"/><path d="M731.4 391.5h-34.6v-3.4h34.6a1.7 1.7 0 0 1 1.7 1.7 1.7 1.7 0 0 1-1.7 1.7z" fill="#375F84"/><path d="M712.6 391.5h-86.5a2.3 2.3 0 0 1-2.3-1.7L606.2 326a2.2 2.2 0 0 1 .3-2 2.2 2.2 0 0 1 1.8-.8H692a4.4 4.4 0 0 1 4.2 3.2L714 390a1.2 1.2 0 0 1-.7 1.4 1.2 1.2 0 0 1-.6.1z" fill="#375F84"/><path d="M709.6 391.5h-86.7a2.3 2.3 0 0 1-2.2-1.7L603 326a2.2 2.2 0 0 1 .4-2 2.2 2.2 0 0 1 1.8-.8h83.7a4.4 4.4 0 0 1 4.2 3.2l17.7 63.6a1.2 1.2 0 0 1-.7 1.4l-.5.1z" fill="#467CDB"/><path d="m366.2 350.3 10-10.3a27 27 0 0 1 1-5.6c.5-1 2-4.6 2.6-5a3.6 3.6 0 0 1 2.1 0 9.8 9.8 0 0 1 2-.4 5.9 5.9 0 0 1 1.8.6s1.5-.1 2.2-.1l.8.1a43.7 43.7 0 0 1 3.6-3.7c1.1-1 3-2.7 3.5-2.6.5 0 .7.8.3 1.8a10.7 10.7 0 0 1-2 2.4l-4.5 7 1.2-.6c.4-.3 3.2-3 3.4-3 .2 0 1.5-.9 2.1 0 .7.8-4.8 7.3-5.7 8.3a48.7 48.7 0 0 1-5.8 3.4s-5.4 9.6-6 10.3c-.5.7-12.6-2.6-12.6-2.6zm9.5-47.5s-5.6 32.4-10.9 33.2c0 0-21 .8-25.8-24.7-4-22 12.3-26.9 20-25.2 7.5 1.7 18.3 2.8 16.7 16.7z" fill="#E49191"/><path d="M357 330.8s-2.9 4-4 13.6a31.2 31.2 0 0 1-16.8-3 119.3 119.3 0 0 0 4.9-28.3" fill="#E49191"/><path d="M351.1 280.7c-11.5 2.5-10.6 9.7-10.6 9.7-5.4 1.3-6.5 3.5-6.5 13.5s3.7 21.9 5.6 22.9c2 1 13.3 1 14.2.6 1-.3 4.9-9.4 4-11-1-1.6 0-8 2.7-8.2 2.6-.2 2 3.8 2 3.8l2.2-.4 1.7-4.1c15.2.9 19.1-16.4 19.1-16.4-3.6-2.5-22.9-13-34.4-10.4z" fill="#002C54"/><path d="M223.3 500.5 235 502l-3.8 13.7-12.6-3.2a8.2 8.2 0 0 1 0-9.8 8.2 8.2 0 0 1 2.6-2.3c.7-.2 1.4-.2 2.1 0z" fill="#E5918F"/><path d="m310.2 465.6-17.2-52s-5.2-1.8-7.9 0c0 0-17.8 9.7-16 37 1.6 20.7 5.9 43.1 7.6 52L231 501a15.6 15.6 0 0 0-2 15.4s57.5 15.5 65.6 17c6.6 1.1 13.8 2 17.2-1 6.2-5.2-1.6-66.8-1.6-66.8z" fill="#000"/><path d="m277.5 500.5 11.7 1.7-3.9 13.6-12.6-3.2a8.2 8.2 0 0 1-1.4-6.7 8.2 8.2 0 0 1 4-5.4 4.4 4.4 0 0 1 2.2 0z" fill="#E5918F"/><path d="M273.3 507.6c-.2 2.7 2 5.1 1.7 5.8-.5.6-8.3 13.8-8.3 13.8s5.9 2.5 5 6.3h-15a12.5 12.5 0 0 1-3.8-8.6 43.6 43.6 0 0 1 3.7-11l8.7-16.7a8.5 8.5 0 0 1 5 0 30.2 30.2 0 0 1 7.2 3.3s-3.6.5-4.2 7.1z" fill="#467CDB"/><path d="M393.1 521.5c-3.7-13.8-38.4-72.6-50.2-88.5-24.1-10.4-49.9-19.4-49.9-19.4-10.6 2.6-15.9 24-9.8 38.3 4 9.8 30.4 34.5 46.4 49H285s-5.2 7.9-.5 15.4c0 0 74.3 16.8 80.8 17.8s21.1 0 21.1 0 9.8-1 6.7-12.6z" fill="#002C54"/><path d="M219.1 507.6c-.2 2.7 2.1 5.1 1.7 5.8l-8.3 13.8s6 2.5 5 6.3h-15a12.5 12.5 0 0 1-3.8-8.6 43.6 43.6 0 0 1 3.7-11l8.7-16.7a8.5 8.5 0 0 1 5 0 30 30 0 0 1 7.2 3.3s-3.5.5-4.2 7.1z" fill="#467CDB"/><path d="m449 340.3-24 42-17-17-14.3 21.1 4.1 2-1.4 1.2s33 16.1 37 12.6c4-3.6 22.5-57.1 22.5-57.1l-6.8-4.8z" fill="#E49191"/><path d="M411 368s-4.5 19.1-13.6 28l-23.1-8.7s-10.7 18-21.2 31.8c-4 5.4-5.4 13-10.2 13.9a9.6 9.6 0 0 0-.8-.3c-12.9-3.8-31.8.3-47.5-5.5-17.3-6.5-14-10.1-14-10.1a223.3 223.3 0 0 0 16.5-39 238.5 238.5 0 0 0 5.7-23.4 27 27 0 0 1 22.8-21.7h.3c13.1-1.7 47.4 2.4 54.1 5.2 6.7 2.9 31 29.8 31 29.8z" fill="#467CDB"/><path d="M374.3 387.3s-10.7 18-21.2 31.9c-4 5.3-5.4 12.8-10.2 13.8 2.1-.7 5.6-11.6 6.8-14.1 1.2-2.5 3.2-5 7.4-13.5 4.3-8.6 10-21.2 10-21.2l7.2 3z" fill="#5996EF"/><path d="M329.7 501a39.9 39.9 0 0 1 23 3.3c-7.5-1.4-15.3-2.4-23-3.4z" fill="#000"/><path d="M466.9 324.8a22 22 0 0 0-4 3l1.3-2.7a25.2 25.2 0 0 0 2.5-2.7c.6-1 .3-2-.2-2a20.4 20.4 0 0 0-3.8 2.7l.3-.5a26.3 26.3 0 0 0 2.4-2.7c.7-1 .4-2-.1-2s-4.7 3.5-4.7 3.5l-2 2.7 1.4-3 1.4-2c.5-1 .1-1.4-.2-1.8-.3-.3-3 1.8-3.8 2.6a45.1 45.1 0 0 0-3.1 4.7l-2.3 4.8-.5-5.4c-.3-2.2-2.3-2.7-2.3-1.6-.1 1-1.2 6.3-1 9.2.3 2.8.8 4.7 1 6.3.1 1.6-1.5 4.8-1.5 4.8s6.6 4.1 7.7 3a52.3 52.3 0 0 0 4.6-6 30.8 30.8 0 0 0 2.6-5.8l2.1-4.4a25.9 25.9 0 0 0 2.5-2.8c.6-1 .2-1.9-.3-2z" fill="#E49191"/><path d="M849.4 190.7h-78.2a9 9 0 0 0-9 9v18.5a9 9 0 0 0 7.9 9 1.3 1.3 0 0 1 1.1 1.3v10a.6.6 0 0 0 .8.6.6.6 0 0 0 .3-.2l8-11.1a1.3 1.3 0 0 1 1-.6h68a9 9 0 0 0 9.1-9v-18.5a9 9 0 0 0-9-9z" stroke="#fff" stroke-width=".9" stroke-miterlimit="10"/><path d="M783.2 209a3 3 0 0 1-1.8 2.7 3 3 0 0 1-4-2.2 3 3 0 0 1 1.2-3 3 3 0 0 1 4.6 2.4zm15 0a3 3 0 0 1-3.5 2.8 3 3 0 0 1-2.3-2.3 3 3 0 0 1 1.3-3 3 3 0 0 1 4.5 2.4zm15 0a3 3 0 0 1-1.8 2.7 3 3 0 0 1-4-2.2 3 3 0 0 1 1.3-3 3 3 0 0 1 4.6 2.4zm15.1 0a3 3 0 0 1-1.8 2.7 3 3 0 0 1-4-2.2 3 3 0 0 1 1.2-3 3 3 0 0 1 4.6 2.4zm15 0a3 3 0 0 1-1.8 2.7 3 3 0 0 1-3.8-3.9 3 3 0 0 1 5.6 1.1zM232 271.5H310a9 9 0 0 1 6.4 2.6 9 9 0 0 1 2.7 6.4v18.5a9 9 0 0 1-8 9 1.3 1.3 0 0 0-1 1.3v10.1a.6.6 0 0 1-.5.6.6.6 0 0 1-.7-.2l-8-11.1a1.3 1.3 0 0 0-1-.6h-68a9 9 0 0 1-9-9v-18.6a9 9 0 0 1 5.5-8.3 9 9 0 0 1 3.5-.7z" stroke="#fff" stroke-width=".9" stroke-miterlimit="10"/><path d="M298.1 289.8a3 3 0 0 0 1.8 2.8 3 3 0 0 0 3.3-.7 3 3 0 0 0 .6-3.2 3 3 0 0 0-1-1.3 3 3 0 0 0-4.7 2.4zm-15 0a3 3 0 0 0 1.8 2.8 3 3 0 0 0 3.2-.7 3 3 0 0 0 .7-3.2 3 3 0 0 0-1.1-1.3 3 3 0 0 0-3.7.4 3 3 0 0 0-1 2zm-15 0a3 3 0 0 0 1.8 2.8 3 3 0 0 0 3.2-.7 3 3 0 0 0 .6-3.2 3 3 0 0 0-5.6 1.1zm-15 0a3 3 0 0 0 1.7 2.8 3 3 0 0 0 3.3-.7 3 3 0 0 0 .6-3.2 3 3 0 0 0-2.7-1.8 3 3 0 0 0-2.1.9 3 3 0 0 0-.9 2zm-15.1 0a3 3 0 0 0 1.8 2.8 3 3 0 0 0 3.2-.7 3 3 0 0 0-.4-4.5 3 3 0 0 0-3.7.4 3 3 0 0 0-1 2z" stroke="#fff" stroke-width=".9" stroke-miterlimit="10"/><path d="M703.8 148H561.4a14.2 14.2 0 0 1-14.2-14.2 14.2 14.2 0 0 1 14.2-14.2h142.4a14.2 14.2 0 0 1 14.2 14.2 14.2 14.2 0 0 1-8.8 13.2 14.2 14.2 0 0 1-5.4 1z" fill="#fff" stroke="#4981D6" stroke-width=".9" stroke-miterlimit="10"/><path d="M701.7 132.9a7.6 7.6 0 0 1-4.6 7 7.6 7.6 0 0 1-10.3-5.5 7.6 7.6 0 0 1 3.2-7.8 7.6 7.6 0 0 1 9.5 1 7.6 7.6 0 0 1 2.2 5.3z" stroke="#4981D6" stroke-width="1.7" stroke-miterlimit="10"/><path d="M488.1 476.3h-35.8c-6.3 0-11.4 5.1-11.4 11.4v35.8c0 6.3 5.1 11.4 11.4 11.4h35.8c6.3 0 11.4-5.1 11.4-11.4v-35.8c0-6.3-5.1-11.4-11.4-11.4z" fill="#194991"/><path d="M477.5 476.3h-35.9c-6.2 0-11.3 5.1-11.3 11.4v35.8c0 6.3 5 11.4 11.3 11.4h35.9c6.2 0 11.3-5.1 11.3-11.4v-35.8c0-6.3-5-11.4-11.3-11.4z" fill="#4981D6"/><path d="m452.6 494.6 16.8 9.7a1.6 1.6 0 0 1 .8 1.3 1.6 1.6 0 0 1-.8 1.3l-16.8 9.7a1.5 1.5 0 0 1-2.3-1.3v-19.4a1.5 1.5 0 0 1 2.3-1.3z" fill="#fff"/><path d="M858.7 458.4h-46.8c-8.2 0-14.9 6.6-14.9 14.8V520c0 8.2 6.7 14.9 14.9 14.9h46.8c8.2 0 14.8-6.7 14.8-14.9v-46.8c0-8.2-6.6-14.8-14.8-14.8z" fill="#194991"/><path d="M844.7 458.4H798c-8.2 0-14.8 6.6-14.8 14.8V520c0 8.2 6.6 14.9 14.8 14.9h46.8c8.2 0 14.9-6.7 14.9-14.9v-46.8c0-8.2-6.7-14.8-14.9-14.8z" fill="#4981D6"/><path d="M830.5 477a9.2 9.2 0 0 1-1.5 5.2 9.2 9.2 0 0 1-9.5 3.9 9.2 9.2 0 0 1-7.2-7.2 9.2 9.2 0 0 1 4-9.5 9.2 9.2 0 0 1 11.5 1.2 9.2 9.2 0 0 1 2.7 6.5zm10 31.2v13.6a2.2 2.2 0 0 1-2.2 2.2h-33.9a2.2 2.2 0 0 1-2.2-2.2v-13.6a19.1 19.1 0 1 1 38.3 0z" fill="#fff"/><path d="M650.2 164.5h-30a2.3 2.3 0 0 1-2.3-2.3 2.3 2.3 0 0 1 2.3-2.3h30a2.3 2.3 0 0 1 1.6 3.9 2.3 2.3 0 0 1-1.6.7zm30.1 0h-21.7a2.3 2.3 0 0 1-.9-4.4l.9-.2h21.7a2.2 2.2 0 0 1 1.6.7 2.2 2.2 0 0 1 .7 1.6 2.2 2.2 0 0 1-.7 1.6 2.3 2.3 0 0 1-1.6.7zm-47.4 9.9h-12.7a2.3 2.3 0 0 1-2.3-2.3 2.3 2.3 0 0 1 2.3-2.2h12.7a2.3 2.3 0 0 1 1.6 3.8 2.3 2.3 0 0 1-1.6.7zm47.4 0h-39.8a2.3 2.3 0 0 1-2.3-2.3 2.3 2.3 0 0 1 2.3-2.2h39.7a2.2 2.2 0 0 1 1.6.6 2.2 2.2 0 0 1 .7 1.6 2.3 2.3 0 0 1-2.2 2.3zm-20.5 10h-39.6a2.3 2.3 0 0 1-2.3-2.3 2.3 2.3 0 0 1 2.3-2.3h39.6a2.2 2.2 0 0 1 1.6.7 2.3 2.3 0 0 1 .7 1.6 2.3 2.3 0 0 1-2.3 2.2zm20.5 0h-12.7a2.3 2.3 0 0 1-2.3-2.3 2.3 2.3 0 0 1 2.3-2.3h12.7a2.2 2.2 0 0 1 1.6.7 2.2 2.2 0 0 1 .7 1.6 2.3 2.3 0 0 1-2.3 2.2z" fill="#F0F4FF"/><path d="M269.4 331h-105a5.6 5.6 0 0 0-5.7 5.7v53a5.6 5.6 0 0 0 5.7 5.6h105a5.6 5.6 0 0 0 5.6-5.6v-53a5.6 5.6 0 0 0-5.6-5.6z" fill="#194991"/><path d="M163.7 339.7H270" stroke="#fff" stroke-width=".9" stroke-miterlimit="10" stroke-linecap="round"/><path d="M267.3 336.6a1.3 1.3 0 1 0 0-2.5 1.3 1.3 0 0 0 0 2.5zm-6.8 0a1.3 1.3 0 1 0 0-2.6 1.3 1.3 0 0 0 0 2.6zm-6.7 0a1.3 1.3 0 1 0 0-2.6 1.3 1.3 0 0 0 0 2.6z" fill="#fff"/><path d="M183.5 348.4h-18a1.8 1.8 0 0 1-1.8-1.8 1.8 1.8 0 0 1 1.8-1.8h18a1.8 1.8 0 0 1 1.8 1.8 1.8 1.8 0 0 1-1.8 1.8zm0 8.2h-18a1.8 1.8 0 0 1 0-3.5h18a1.8 1.8 0 0 1 1.3 3 1.8 1.8 0 0 1-1.3.5zm0 8.2h-18a1.8 1.8 0 0 1 0-3.5h18c.5 0 1 .2 1.3.5a1.8 1.8 0 0 1-1.3 3zm0 8.3h-18a1.8 1.8 0 0 1-1.8-1.8 1.8 1.8 0 0 1 1.8-1.8h18a1.8 1.8 0 0 1 1.8 1.8 1.8 1.8 0 0 1-1.8 1.8zm0 8.2h-18a1.8 1.8 0 0 1 0-3.6h18a1.8 1.8 0 0 1 1.3 3 1.8 1.8 0 0 1-1.3.6zm0 8.2h-18a1.8 1.8 0 1 1 0-3.6h18a1.8 1.8 0 1 1 0 3.6z" fill="#6589D1"/><path d="M268.3 348.4h-77.8a1.8 1.8 0 0 1-1.8-1.8 1.8 1.8 0 0 1 1.8-1.8h77.8a1.8 1.8 0 0 1 1.7 1.8 1.8 1.8 0 0 1-1.7 1.8zm0 8.2h-77.8a1.8 1.8 0 0 1 0-3.5h77.8a1.8 1.8 0 0 1 1.2 3c-.3.3-.7.5-1.2.5zm0 8.2h-77.8a1.8 1.8 0 0 1 0-3.5h77.8a1.8 1.8 0 0 1 1.2 3 1.8 1.8 0 0 1-1.2.5zm0 8.3h-77.8a1.8 1.8 0 0 1-1.8-1.8 1.8 1.8 0 0 1 1.8-1.8h77.8a1.8 1.8 0 0 1 1.2 3c-.3.4-.7.6-1.2.6zm0 8.2h-77.8a1.8 1.8 0 0 1 0-3.6h77.8a1.8 1.8 0 0 1 1.7 1.8 1.8 1.8 0 0 1-1.7 1.8zm0 8.2h-77.8a1.8 1.8 0 1 1 0-3.6h77.8a1.8 1.8 0 0 1 1.2 3 1.8 1.8 0 0 1-1.2.6z" fill="#3B5FB7"/><path d="M814.4 59.6a47.9 47.9 0 1 0-93.1-22.3 47.9 47.9 0 0 0 93.1 22.3z" stroke="#DEE3FC" stroke-width=".8" stroke-miterlimit="10"/><path d="M784.7 86.5A41.6 41.6 0 1 0 751 10.4a41.6 41.6 0 0 0 33.7 76z" fill="#396DBA"/><path d="M771.7 48.4a3.8 3.8 0 1 1-7.6 0 3.8 3.8 0 0 1 7.6 0z" fill="#fff"/><path d="M767.5 47.7a1.2 1.2 0 0 1-1.6-.5l-12.3-22a1.2 1.2 0 0 1 .1-1.4l.4-.3a1.2 1.2 0 0 1 1.6.5l12.2 22a1.2 1.2 0 0 1-.4 1.7zm1 1.3a1.2 1.2 0 0 1 .8-.3 1.2 1.2 0 0 1 .9.3l10.6 10.6a1.2 1.2 0 0 1 0 1.7 1.2 1.2 0 0 1-1.7 0l-10.6-10.6a1.2 1.2 0 0 1 0-1.7z" fill="#fff"/><path d="M768.2 15.1v-4.7m33 38.3h4.8m-38.4 33v4.8m-33-38.3h-4.8" stroke="#fff" stroke-width="2" stroke-miterlimit="10" stroke-linecap="round"/><path d="m751.5 19.5-2.4-4.2M796.9 32l4.1-2.4m-16.7 47.8 2.4 4.2M739 64.9l-4.1 2.4M739.2 31.6l-4.2-2.4m49.8-9.5 2.4-4.1m9.4 49.7 4.1 2.4M751 77.2l-2.4 4.1" opacity=".5" stroke="#DEE3FC" stroke-miterlimit="10" stroke-linecap="round"/><path d="M199.2 208.6h-52.5a14 14 0 0 0-14.1 14v52.6a14 14 0 0 0 14 14.1h52.6a14 14 0 0 0 14.1-14v-52.6a14 14 0 0 0-14-14.1z" fill="#194991"/><path d="M195.8 201.6h-58.2c-6.2 0-11.3 5-11.3 11.3V271c0 6.3 5.1 11.3 11.3 11.3h58.2c6.2 0 11.3-5 11.3-11.3V213c0-6.3-5-11.3-11.3-11.3z" fill="#7EB8FD" stroke="#DEE3FC" stroke-miterlimit="10"/><path d="M180.7 232.7h-.4V228a13.8 13.8 0 1 0-27.6 0v4.6a3.9 3.9 0 0 0-4 3.8V254a3.9 3.9 0 0 0 1.2 2.7 3.9 3.9 0 0 0 2.8 1.2h28a3.9 3.9 0 0 0 2.7-1.2 3.9 3.9 0 0 0 1.1-2.7v-17.4a3.9 3.9 0 0 0-1-2.8 3.8 3.8 0 0 0-2.8-1.1zm-24.5-4.7a10.3 10.3 0 1 1 20.6 0v4.7h-20.6V228z" fill="#DEE3FC"/><path d="M171.2 241.7a4.5 4.5 0 0 0-6.7-4 4.5 4.5 0 0 0 0 7.8.8.8 0 0 1 .4 1l-.8 2.9a2.7 2.7 0 0 0 .4 2.3 2.7 2.7 0 0 0 2.2 1 2.7 2.7 0 0 0 2.6-3.3l-.8-2.9a.8.8 0 0 1 .4-.9 4.5 4.5 0 0 0 2.3-4z" fill="#7EB8FD"/><path d="M182.9 264h-32.4a1.7 1.7 0 0 1-1.7-1.7 1.7 1.7 0 0 1 1.7-1.6H183a1.7 1.7 0 0 1 1.7 1.6 1.7 1.7 0 0 1-1.7 1.7zm0 5.6h-32.4a1.7 1.7 0 0 1-1.7-1.7 1.7 1.7 0 0 1 1.7-1.6H183a1.7 1.7 0 0 1 1.7 1.6 1.7 1.7 0 0 1-1.7 1.7z" fill="#DEE3FC"/><path d="M835.2 336.7h-31a8.3 8.3 0 0 0-8.3 8.3v31a8.3 8.3 0 0 0 8.3 8.2h31a8.3 8.3 0 0 0 8.3-8.3v-31a8.3 8.3 0 0 0-8.3-8.2z" fill="#194991"/><path d="M833.2 332.6h-34.3a6.6 6.6 0 0 0-6.6 6.6v34.3a6.6 6.6 0 0 0 6.6 6.6h34.3a6.6 6.6 0 0 0 6.6-6.6v-34.3a6.6 6.6 0 0 0-6.6-6.6z" fill="#7EB8FD" stroke="#DEE3FC" stroke-miterlimit="10"/><path d="M806.4 370.5a1.3 1.3 0 0 1-.4 0 1.5 1.5 0 0 1-1-1.8l7.2-25.4a1.5 1.5 0 0 1 2.8.8l-7.2 25.4a1.5 1.5 0 0 1-1.4 1zm12 0a1.2 1.2 0 0 1-.3 0 1.5 1.5 0 0 1-1-1.8l7.1-25.4a1.5 1.5 0 0 1 1.8-1 1.5 1.5 0 0 1 1 1.8l-7.1 25.4a1.5 1.5 0 0 1-1.5 1z" fill="#fff"/><path d="M828.8 352h-25.5a1.5 1.5 0 0 1 0-2.9h25.5a1.5 1.5 0 1 1 0 3zm0 11.7h-25.5a1.5 1.5 0 0 1 0-3h25.5a1.5 1.5 0 1 1 0 3z" fill="#fff"/><path d="M261.4 233.2h-18.5a2 2 0 1 1 0-4h18.4a2 2 0 0 1 1.5.6 2 2 0 0 1 .6 1.4 2 2 0 0 1-2 2zm18.5 9h-37a2 2 0 0 1 0-4h37a2 2 0 0 1 1.4.6 2 2 0 0 1-1.4 3.4zm-32.5 9h-4.5a2 2 0 0 1 0-4h4.5a2 2 0 0 1 2 2 2 2 0 0 1-.6 1.4 2 2 0 0 1-1.4.5zm32.5 0h-25.7a2 2 0 0 1-1.4-3.5 2 2 0 0 1 1.4-.6H280a2 2 0 0 1 0 4zm0-18h-11.1a2 2 0 0 1-2-2 2 2 0 0 1 .6-1.4 2 2 0 0 1 1.4-.6h11.1a2 2 0 0 1 1.5 3.4 2 2 0 0 1-1.5.6z" fill="#F0F4FF"/><path d="M176.2 508.5a12.8 12.8 0 0 0-6.6 1.8 13.8 13.8 0 0 0-23.7-8 13.8 13.8 0 0 0-3.7 9.5v1.5a10.7 10.7 0 0 0-1.9-.2 10.5 10.5 0 0 0-7.7 18.1 10.5 10.5 0 0 0 7.7 3h35.9a12.9 12.9 0 0 0 9.3-3.7 12.9 12.9 0 0 0 4-9.2 12.9 12.9 0 0 0-4-9.2 12.9 12.9 0 0 0-9.3-3.6z" fill="#fff"/><path d="M85 453.3a13.5 13.5 0 0 1 .2-5.8 57.3 57.3 0 0 0-.7-31.1c-6.9-21.5-34.7-40.5-34.7-40.5s7.5 31.7 13.7 45.2c4.6 10 12.6 21.1 17 27a13.3 13.3 0 0 1 2.4 5.6c2.7 14.7 4 29.6 3.9 44.6h2a235.4 235.4 0 0 0-3.8-45z" fill="#DEE3FC"/><path d="M107.2 433.1a249 249 0 0 0 8.1-38.1s-25 20.6-27 36.6a53.6 53.6 0 0 0 1.7 22.2c.6 2 .8 4 .6 6a210.3 210.3 0 0 0-.6 41.8l2-.2a208.5 208.5 0 0 1 .2-39.2 15.8 15.8 0 0 1 3.5-8.3 65.2 65.2 0 0 0 11.5-20.8z" fill="#B4C1EF"/><path d="M132.6 394.2s-27 10-34 32a58.7 58.7 0 0 0-.5 32.1 11 11 0 0 1 0 5.5 247.4 247.4 0 0 0-6.4 51.9h2.1a245.8 245.8 0 0 1 6.2-50.8 19.4 19.4 0 0 1 3.2-6.8c4.6-6.2 12.4-17.3 17-27.1a295.8 295.8 0 0 0 12.4-36.8z" fill="#DEE3FC"/><path d="M85 487a74.7 74.7 0 0 0-6.1-24.5 8.3 8.3 0 0 1-.7-4.4c.5-4.4.3-8.8-.6-13.1-2.2-10.9-16.5-34.2-37.2-35.5a150.6 150.6 0 0 1 10.8 21.1c4.7 12.2 11.3 25 22.3 29.8a8.3 8.3 0 0 1 4.3 4.4 72.5 72.5 0 0 1 5.4 22.3l1.9-.1z" fill="#B4C1EF"/><path d="M71 534.2h34.3l8.8-54.3a4 4 0 0 0-2.2-4.2 4 4 0 0 0-1.7-.4H66.1a4 4 0 0 0-4 4.6l9 54.3z" fill="#DEE3FC"/><path d="M.8 534.2h957.4" stroke="#fff" stroke-width="1.1" stroke-miterlimit="10" stroke-linecap="round"/></g><defs><clipPath id="a"><path fill="#fff" d="M0 0h959v535H0z"/></clipPath></defs></svg>