<svg width="204" height="18" viewBox="0 0 204 18" fill="none" xmlns="http://www.w3.org/2000/svg">
<path d="M0.56 0.487999H5.36V17H0.56V0.487999ZM6.368 13.328H7.352C7.8 13.328 8.136 13.32 8.36 13.304C8.6 13.272 8.776 13.208 8.888 13.112C9 13.016 9.072 12.88 9.104 12.704C9.152 12.528 9.176 12.272 9.176 11.936C9.176 11.584 9.152 11.32 9.104 11.144C9.072 10.968 9 10.832 8.888 10.736C8.696 10.576 8.184 10.496 7.352 10.496H6.368V6.824H7.208C7.656 6.824 7.992 6.816 8.216 6.8C8.456 6.768 8.632 6.704 8.744 6.608C8.856 6.512 8.928 6.384 8.96 6.224C9.008 6.048 9.032 5.808 9.032 5.504C9.032 5.184 9.008 4.944 8.96 4.784C8.928 4.608 8.856 4.472 8.744 4.376C8.632 4.28 8.456 4.224 8.216 4.208C7.992 4.176 7.656 4.16 7.208 4.16H6.368V0.487999H9.104C12.32 0.487999 13.928 1.872 13.928 4.64C13.928 5.808 13.696 6.688 13.232 7.28C12.784 7.872 12.064 8.288 11.072 8.528V8.624C12.112 8.864 12.856 9.24 13.304 9.752C13.816 10.36 14.072 11.304 14.072 12.584C14.072 14.056 13.68 15.16 12.896 15.896C12.112 16.632 10.856 17 9.128 17H6.368V13.328ZM16.6381 0.487999H21.4381V17H16.6381V0.487999ZM24.56 1.16V0.487999H29.36L38.624 16.304V17H33.848L24.56 1.16ZM34.064 6.512V0.487999H38.624V14.312L34.064 6.512ZM24.56 3.152L29.12 10.952V17H24.56V3.152ZM45.4837 0.487999H45.8917L47.7877 7.064L45.0277 17H40.2277L45.4837 0.487999ZM50.8837 14.072H46.8757L47.8837 10.376H49.8037L46.9717 0.487999H51.3637L56.6197 17H51.7237L50.8837 14.072ZM58.2163 0.487999H63.0163V17H58.2163V0.487999ZM64.9843 11.384H64.0243V7.712H64.8403C65.3363 7.712 65.7123 7.696 65.9683 7.664C66.2243 7.616 66.4243 7.536 66.5683 7.424C66.6963 7.312 66.7843 7.144 66.8323 6.92C66.8803 6.696 66.9043 6.368 66.9043 5.936C66.9043 5.504 66.8803 5.176 66.8323 4.952C66.7843 4.712 66.6963 4.536 66.5683 4.424C66.4403 4.312 66.2483 4.24 65.9923 4.208C65.7523 4.176 65.3683 4.16 64.8403 4.16H64.0243V0.487999H66.4963C67.6323 0.487999 68.5523 0.599999 69.2563 0.823999C69.9603 1.048 70.5043 1.392 70.8883 1.856C71.2403 2.288 71.4723 2.824 71.5843 3.464C71.7123 4.104 71.7763 4.928 71.7763 5.936C71.7763 7.232 71.6563 8.232 71.4163 8.936C71.0803 9.832 70.4883 10.464 69.6403 10.832L72.1363 17H67.0963L64.9843 11.384ZM77.6137 11.552L77.3977 11.072L76.7737 9.848L76.1737 8.576C76.1097 8.464 76.0297 8.296 75.9337 8.072L74.9497 6.032L72.3097 0.487999H77.2057L82.4137 11.576V17H77.6137V11.552ZM80.7097 5.6L82.9417 0.487999H87.7417L85.8697 4.376L85.0777 6.008L83.5657 9.152L82.9657 10.4L80.7097 5.6ZM95.06 0.487999H99.86V17H95.06V0.487999ZM100.868 13.328H101.852C102.3 13.328 102.636 13.32 102.86 13.304C103.1 13.272 103.276 13.208 103.388 13.112C103.5 13.016 103.572 12.88 103.604 12.704C103.652 12.528 103.676 12.272 103.676 11.936C103.676 11.584 103.652 11.32 103.604 11.144C103.572 10.968 103.5 10.832 103.388 10.736C103.196 10.576 102.684 10.496 101.852 10.496H100.868V6.824H101.708C102.156 6.824 102.492 6.816 102.716 6.8C102.956 6.768 103.132 6.704 103.244 6.608C103.356 6.512 103.428 6.384 103.46 6.224C103.508 6.048 103.532 5.808 103.532 5.504C103.532 5.184 103.508 4.944 103.46 4.784C103.428 4.608 103.356 4.472 103.244 4.376C103.132 4.28 102.956 4.224 102.716 4.208C102.492 4.176 102.156 4.16 101.708 4.16H100.868V0.487999H103.604C106.82 0.487999 108.428 1.872 108.428 4.64C108.428 5.808 108.196 6.688 107.732 7.28C107.284 7.872 106.564 8.288 105.572 8.528V8.624C106.612 8.864 107.356 9.24 107.804 9.752C108.316 10.36 108.572 11.304 108.572 12.584C108.572 14.056 108.18 15.16 107.396 15.896C106.612 16.632 105.356 17 103.628 17H100.868V13.328ZM114.882 0.487999H115.29L117.186 7.064L114.426 17H109.626L114.882 0.487999ZM120.282 14.072H116.274L117.282 10.376H119.202L116.37 0.487999H120.762L126.018 17H121.122L120.282 14.072ZM133.087 0.319999C133.215 0.303999 133.415 0.295999 133.687 0.295999H134.311C135.383 0.295999 136.431 0.375999 137.455 0.535999C137.983 0.615999 138.391 0.695999 138.679 0.775999V4.208C138.439 4.192 138.039 4.152 137.479 4.088C136.727 4.008 136.071 3.968 135.511 3.968C134.887 3.968 134.383 3.992 133.999 4.04C133.631 4.072 133.327 4.136 133.087 4.232V0.319999ZM134.311 17.192C132.711 17.192 131.439 17.056 130.495 16.784C129.567 16.496 128.863 16.024 128.383 15.368C127.919 14.744 127.599 13.92 127.423 12.896C127.263 11.856 127.183 10.472 127.183 8.744C127.183 7.224 127.239 5.992 127.351 5.048C127.479 4.104 127.703 3.312 128.023 2.672C128.359 2.016 128.847 1.512 129.487 1.16C130.143 0.791999 131.007 0.543999 132.079 0.415999V8.744C132.079 9.64 132.095 10.504 132.127 11.336C132.159 11.976 132.279 12.456 132.487 12.776C132.711 13.096 133.055 13.296 133.519 13.376C133.967 13.472 134.631 13.52 135.511 13.52C136.423 13.52 137.199 13.48 137.839 13.4C138.095 13.384 138.407 13.344 138.775 13.28V16.76C137.991 16.936 137.103 17.056 136.111 17.12C135.567 17.168 134.967 17.192 134.311 17.192ZM141.255 0.487999H146.055V17H141.255V0.487999ZM147.063 11.216V6.056L150.855 0.487999H156.087L150.399 8.264L156.159 17H150.783L147.063 11.216ZM157.638 0.487999H162.438V17H157.638V0.487999ZM163.446 0.487999H169.542V4.16H163.446V0.487999ZM163.446 6.824H168.414V10.496H163.446V6.824ZM163.446 13.328H169.542V17H163.446V13.328ZM172.427 1.16V0.487999H177.227L186.491 16.304V17H181.715L172.427 1.16ZM181.931 6.512V0.487999H186.491V14.312L181.931 6.512ZM172.427 3.152L176.987 10.952V17H172.427V3.152ZM189.607 0.487999H194.407V17H189.607V0.487999ZM195.415 13.328H195.607C196.391 13.328 196.943 13.296 197.263 13.232C197.599 13.152 197.847 12.976 198.007 12.704C198.183 12.416 198.279 11.96 198.295 11.336C198.327 10.536 198.343 9.672 198.343 8.744C198.343 7.832 198.327 6.96 198.295 6.128C198.263 5.504 198.159 5.048 197.983 4.76C197.823 4.472 197.559 4.296 197.191 4.232C196.823 4.184 196.295 4.16 195.607 4.16H195.415V0.487999H195.607C196.887 0.487999 197.951 0.543999 198.799 0.655999C199.663 0.767999 200.375 0.943999 200.935 1.184C201.479 1.424 201.911 1.752 202.231 2.168C202.551 2.584 202.783 3.104 202.927 3.728C203.055 4.288 203.135 4.952 203.167 5.72C203.215 6.472 203.239 7.48 203.239 8.744C203.239 10.024 203.215 11.04 203.167 11.792C203.135 12.544 203.055 13.2 202.927 13.76C202.783 14.384 202.551 14.904 202.231 15.32C201.911 15.736 201.479 16.064 200.935 16.304C200.375 16.544 199.663 16.72 198.799 16.832C197.951 16.944 196.887 17 195.607 17H195.415V13.328Z" fill="#006AFF"/>
</svg>
