<svg width="774" height="639" fill="none" xmlns="http://www.w3.org/2000/svg"><path d="M630.5 114.6c0-5.7-.6-11.5-1.7-17.2L657.6 81l-27-46.8L602 50.7a85.8 85.8 0 0 0-30.3-17.6V0h-54v33.1c-5 1.7-9.8 3.8-14.5 6.3l-1.6 1-1.6.9a85.4 85.4 0 0 0-12.7 9.3l-28.7-16.5-27 46.7 28.7 16.6c-1 5.1-1.7 10.4-1.8 15.6v3.7c.1 5.3.7 10.5 1.8 15.7l-28.6 16.5 27 46.8 28.6-16.6a85.8 85.8 0 0 0 30.4 17.5v33h54v-33.1a86.4 86.4 0 0 0 30.2-17.5l28.9 16.7 26.9-46.7-29-16.7a85.5 85.5 0 0 0 1.9-17.7Zm-50.6 38-.7.7c-1 .9-1.8 1.7-2.9 2.4l-1.4 1-2.4 1.8-2 1.2-2.1 1.1-2.7 1.3a31 31 0 0 1-5.1 2l-1 .3a52 52 0 0 1-63-69.6l.3-.8 1.5-3.2 1-2 1.2-1.8 2-2.9.6-.7a52 52 0 0 1 91.7 19.9l.2.9.7 3.7.2 1.7.2 3V117.3l-.2 3-.2 1.8-.7 3.7-.2 1c-2.3 9.9-7.5 18.9-15 25.9ZM758.7 279c0-3.3-.3-6.6-1-9.8L774 260l-15.2-26.3-16.2 9.4c-5-4.5-10.8-7.8-17.1-10v-18.7H695V233c-2.9.9-5.6 2-8.2 3.5l-.9.5-.9.6c-2.5 1.5-5 3.3-7.2 5.2l-16.1-9.2-15.2 26.4 16.1 9.3c-.6 2.9-1 5.9-1 8.8v2.1c0 3 .4 6 1 8.8l-16.1 9.4 15.2 26.3 16.1-9.3c5 4.4 10.8 7.8 17.2 9.8V344h30.4v-18.7a48 48 0 0 0 17-9.9l16.3 9.4 15.2-26.3-16.3-9.6a49 49 0 0 0 1-9.9Zm-28.5 21.4-.4.3-1.6 1.4-.8.6-1.4 1-1.1.6-1.2.7-1.5.7-1 .4-2 .7-.4.2a29.3 29.3 0 0 1-35.6-39.2l.2-.5.9-1.9.6-1 .6-1.1 1.1-1.6.3-.5a29.3 29.3 0 0 1 51.8 11.2l.1.6.4 2v1l.2 1.7v2.7l-.1 1.6-.1 1-.4 2-.1.6a29.3 29.3 0 0 1-8.5 14.7ZM167 459.4a69.2 69.2 0 0 0-6.2-12.1l16.4-20.2-33-26.6-16.3 20.2c-8.7-3.3-17.9-4.7-27.1-4.3l-9.4-24.2-39.5 15.3 9.4 24.2a66.6 66.6 0 0 0-8.8 8.7l-1 1.2-.8 1.1a67 67 0 0 0-6.6 10.4l-25.7-4-6.5 41.9 25.6 4c.7 4 1.8 8 3.2 12l.5 1.3.6 1.3c1.5 3.9 3.4 7.6 5.7 11l-16.2 20.2 33 26.6L80.4 547c8.7 3.3 18 4.7 27.2 4.2l9.4 24.2 39.3-15.2-9.4-24.4a68.6 68.6 0 0 0 17-21.3l25.9 4 6.5-41.8-25.8-4c-.8-4.6-2-9-3.6-13.4Zm-26.2 42.1-.4.7-1.4 2.6-.7 1.1-1.4 1.9-1 1.5a80.4 80.4 0 0 1-2.9 3l-1 1-2.2 2-.6.5a40.2 40.2 0 0 1-30 8.3 40.8 40.8 0 0 1-35.8-41.3v-.8c0-.9 0-1.8.2-2.7l.2-1.7.3-1.7.6-2.7.2-.7a41.2 41.2 0 0 1 22.3-25.6 40.8 40.8 0 0 1 50.5 14.1l.4.6a37.9 37.9 0 0 1 4.6 9.4l.6 2.2.4 1.4.5 2.9a41 41 0 0 1-3.6 24h.2ZM372.7 95H4.7A4.7 4.7 0 0 1 0 90a4.7 4.7 0 0 1 4.7-4.7h368a4.7 4.7 0 0 1 4.7 4.7 4.7 4.7 0 0 1-4.7 4.8ZM372.7 128.7H4.7a4.7 4.7 0 0 1-4.7-4.8 4.7 4.7 0 0 1 4.7-4.7h368a4.7 4.7 0 1 1 0 9.5ZM372.7 162.4H4.7a4.7 4.7 0 0 1-4.7-4.7 4.7 4.7 0 0 1 4.7-4.7h368a4.7 4.7 0 1 1 0 9.4ZM372.7 186.7H4.7a4.7 4.7 0 1 0 0 9.4h368a4.7 4.7 0 1 0 0-9.4ZM372.7 230H4.7A4.7 4.7 0 0 1 0 225a4.7 4.7 0 0 1 4.7-4.7h368a4.7 4.7 0 0 1 4.8 4.7 4.7 4.7 0 0 1-4.8 4.8ZM372.7 263.6H4.7a4.7 4.7 0 0 1-4.7-4.7 4.7 4.7 0 0 1 4.7-4.7h368a4.7 4.7 0 1 1 0 9.4ZM372.7 297.3H4.7a4.7 4.7 0 0 1-4.7-4.7 4.7 4.7 0 0 1 4.7-4.7h368a4.7 4.7 0 1 1 0 9.4ZM372.7 331.1H4.7a4.7 4.7 0 0 1-4.7-4.8 4.7 4.7 0 0 1 4.7-4.7h368a4.7 4.7 0 0 1 4.8 4.7 4.7 4.7 0 0 1-4.8 4.8ZM372.7 364.8H4.7A4.7 4.7 0 0 1 0 360a4.7 4.7 0 0 1 4.7-4.8h368a4.7 4.7 0 1 1 0 9.5Z" fill="#EBEBF2"/><path d="M373.9 605c156 0 282.6-11.9 282.6-26.6 0-14.7-126.5-26.7-282.6-26.7-156 0-282.6 12-282.6 26.7S217.8 605 374 605Z" fill="#EBEBF2"/><path d="M455.8 579.8H292l28.2-81.2h107.4l28.2 81.2Z" fill="url(#a)"/><path d="M111.5 251.7h524.8v259.7a28.1 28.1 0 0 1-28.2 28.1H139.7a28.2 28.2 0 0 1-28.2-28.1V251.7Z" fill="url(#b)"/><path d="M139.7 171H608a28.2 28.2 0 0 1 28.2 28.1V473H111.5V199.1a28.1 28.1 0 0 1 28.2-28.1Z" fill="#3D3D89"/><path d="M616 199.4H132.7V444H616V199.4Z" fill="url(#c)"/><path style="mix-blend-mode:multiply" d="M373.9 518.1a15.3 15.3 0 1 0 0-30.5 15.3 15.3 0 0 0 0 30.5Z" fill="url(#d)"/><path d="M498.4 579.8h-249a15.1 15.1 0 0 1 15-15.1h218.9a15.1 15.1 0 0 1 15.1 15.1Z" fill="url(#e)"/><path d="M609.6 639c63.2 0 114.5-7.3 114.5-16.4 0-9-51.3-16.3-114.5-16.3s-114.5 7.3-114.5 16.3S546.4 639 609.6 639Z" fill="#EBEBF2"/><path d="M666.9 363.6H552.3c-9 0-16.3 7.3-16.3 16.4v220c0 9 7.3 16.3 16.3 16.3H667c9 0 16.4-7.3 16.4-16.3V380c0-9-7.4-16.4-16.4-16.4Z" fill="#4B4BA0"/><path d="M683.3 381.2H536v216.5h147.3V381.2Z" fill="url(#f)"/><g filter="url(#g)"><path d="M646.3 437H573c-9 0-16.4 7.3-16.4 16.3v73.3c0 9 7.3 16.4 16.4 16.4h73.3c9 0 16.3-7.4 16.3-16.4v-73.3c0-9-7.3-16.4-16.3-16.4Z" fill="url(#h)"/></g><g filter="url(#i)" fill="#fff"><path d="M609.6 530.5a40.6 40.6 0 1 1 0-81.2 40.6 40.6 0 0 1 0 81.2Zm0-73.5a33.1 33.1 0 1 0 0 66.4 33.1 33.1 0 0 0 0-66.5Z"/><path d="m606.7 505.4-14.2-12.5 6-6.7 7.3 6.5 14.2-16.2 6.7 6-20 22.9Z"/></g><path d="M628 389.8h-36.8a10.3 10.3 0 0 1-10.4-10.3h57.6a10.3 10.3 0 0 1-10.3 10.3Z" fill="#4B4BA0"/><path opacity=".1" d="M623 381.2h-26.8a1.7 1.7 0 1 1 0-3.4H623a1.7 1.7 0 0 1 0 3.4Z" fill="#fff"/><g filter="url(#j)"><path d="M501.5 145.4H211.9c-9 0-16.4 7.3-16.4 16.4v175c0 9 7.3 16.3 16.4 16.3h289.6c9 0 16.3-7.3 16.3-16.3v-175c0-9-7.3-16.4-16.3-16.4Z" fill="url(#k)"/></g><path d="M501.5 161.8H211.9v175h289.6v-175Z" fill="#3D3D89"/><path d="M272.9 185.1h-30.2v4.1H273v-4ZM344 185.1h-61.6v4.1H344v-4Z" fill="#FFC700"/><path d="M285.7 201.6h-30.2v4h30.2v-4Z" fill="#fff"/><path d="M471.3 201.6H295.2v4h176.1v-4Z" fill="#1E9AFF"/><path d="M285.7 217h-30.2v4h30.2v-4Z" fill="#fff"/><path d="M471.3 217H295.2v4h176.1v-4Z" fill="#1E9AFF"/><path d="M285.7 232.2h-30.2v4h30.2v-4Z" fill="#fff"/><path d="M471.3 232.2H295.2v4h176.1v-4Z" fill="#1E9AFF"/><path d="M285.7 247.5h-30.2v4h30.2v-4Z" fill="#fff"/><path d="M272.9 263.7h-30.2v4H273v-4ZM344 263.7h-61.6v4H344v-4Z" fill="#FFC700"/><path d="M408.8 280.2H295.2v4h113.6v-4ZM408.8 295.5H295.2v4h113.6v-4Z" fill="#fff"/><path d="M285.6 295.5h-10v4h10v-4ZM285.7 310.8h-30.2v4h30.2v-4Z" fill="#1E9AFF"/><path d="M408.8 310.8H295.2v4h113.6v-4ZM472.6 280.2H417v4h55.6v-4ZM472.6 295.5H417v4h55.6v-4ZM472.6 310.8H417v4h55.6v-4Z" fill="#fff"/><path d="M471.3 247.5H295.2v4h176.1v-4Z" fill="#1E9AFF"/><g filter="url(#l)"><path d="M143 227.1H49.5c-9 0-16.3 7.4-16.3 16.4v93.3c0 9 7.3 16.3 16.3 16.3H143c9 0 16.4-7.3 16.4-16.3v-93.3c0-9-7.3-16.4-16.4-16.4Z" fill="url(#m)"/></g><g filter="url(#n)"><path d="M125.3 290c0-1.9-.2-3.8-.6-5.8l9.8-5.6-9.2-15.8-9.7 5.6c-3-2.6-6.5-4.6-10.3-5.9v-11.2H87.2v11.2c-1.7.6-3.4 1.3-5 2.1l-.5.3-.5.4c-1.5.9-3 2-4.3 3.1l-9.7-5.5-9.2 15.8 9.7 5.5c-.3 1.8-.5 3.5-.6 5.3v1.3c0 1.8.3 3.5.6 5.3l-9.7 5.5 9.2 15.8 9.7-5.5a29 29 0 0 0 10.3 5.9V329h18.2v-11.3a29.2 29.2 0 0 0 10.2-5.9l9.8 5.6 9.2-15.7-9.8-5.7c.4-2 .6-4 .5-6Zm-17 13-.3.2-1 .8-.5.3-.8.6-.7.4-.7.4-.9.4-.5.3-1.2.4h-.3a17.1 17.1 0 0 1-13.4-1.3 17.6 17.6 0 0 1-7.8-22.5l.5-1 .4-.7.3-.7.7-1 .2-.2a17.6 17.6 0 0 1 31 6.6v.3l.2 1.3v4.8l-.2 1.2v.3a18.1 18.1 0 0 1-5 9Z" fill="#fff"/></g><g filter="url(#o)"><path d="M288.5 381.8h-126c-9 0-16.4 7.4-16.4 16.4v77c0 9 7.3 16.3 16.4 16.3h126c9 0 16.4-7.4 16.4-16.4v-77c0-9-7.4-16.3-16.4-16.3Z" fill="url(#p)"/></g><g filter="url(#q)" fill="#fff"><path d="m202.5 410.8-29.8 25.9 29.8 25.8v-14l-13.7-11.8 13.7-11.9v-14ZM248.4 462.5l30-25.8-30-26v14.1l13.7 11.9-13.7 11.8v14ZM222.6 471H210l18.4-68.6H241l-18.4 68.5Z"/></g><g filter="url(#r)"><path d="M713 80.4H570.6c-9 0-16.4 7.3-16.4 16.3v142.4c0 9 7.4 16.3 16.4 16.3H713c9 0 16.3-7.3 16.3-16.3V96.7c0-9-7.3-16.3-16.3-16.3Z" fill="url(#s)"/></g><g filter="url(#t)" fill="#fff"><path d="M685.2 135.6c-3.5 0-7 .9-10.1 2.4a35.6 35.6 0 0 0-68.3-.8 23.5 23.5 0 0 0-25.1 5.4c-4.5 4.5-7 10.5-7 16.7h134.2a23.7 23.7 0 0 0-23.7-23.7ZM617.1 199.2l24.7 24.7 24.7-24.7h-16.7v-29h-16v29H617Z"/></g><g filter="url(#u)"><path d="M143 72.5H49.5c-9 0-16.3 7.3-16.3 16.3v93.3c0 9 7.3 16.4 16.3 16.4H143c9 0 16.4-7.4 16.4-16.4V88.8c0-9-7.3-16.3-16.4-16.3Z" fill="url(#v)"/></g><path d="M144.4 87.4H48.2v96.2h96.2V87.4Z" fill="#3D3D89"/><path d="M73.3 106h-8.9v4.2h8.9V106Z" fill="#fff"/><path d="M123.2 106H78v4.2h45.3V106Z" fill="#1E9AFF"/><path d="M78.2 119.8H64.4v4h13.8v-4Z" fill="#fff"/><path d="M128.1 119.8H82.8v4h45.3v-4Z" fill="#1E9AFF"/><path d="M73.3 145.5h-8.9v4h8.9v-4Z" fill="#fff"/><path d="M123.2 145.5H78v4h45.3v-4Z" fill="#1E9AFF"/><path d="M78.2 159.1H64.4v4h13.8v-4Z" fill="#fff"/><path d="M128.1 159.1H82.8v4h45.3v-4Z" fill="#1E9AFF"/><path d="M70 133.4H56.3v4H70v-4Z" fill="#fff"/><path d="M136.3 133.4H74.7v4h61.6v-4Z" fill="#1E9AFF"/><path d="M414.2 378.4h-36.9v36.9h37v-37ZM467.9 378.4h-37v36.9h37v-37ZM521.5 378.4h-37v36.9h37v-37ZM595 278.2h-55.6v4H595v-4ZM595 293.4h-55.6v4.1H595v-4ZM595 308.7h-55.6v4.1H595v-4Z" fill="#A7C8FF" style="mix-blend-mode:multiply"/><defs><linearGradient id="a" x1="319.7" y1="499.1" x2="428.1" y2="607.5" gradientUnits="userSpaceOnUse"><stop offset=".2" stop-color="#A7C8FF"/><stop offset=".5" stop-color="#ABCBFF"/><stop offset=".7" stop-color="#B7D3FF"/><stop offset=".9" stop-color="#CBE0FF"/><stop offset="1" stop-color="#D8E9FF"/></linearGradient><linearGradient id="b" x1="174.8" y1="188.4" x2="572.8" y2="586.6" gradientUnits="userSpaceOnUse"><stop stop-color="#D8E9FF"/><stop offset="1" stop-color="#A7C8FF"/></linearGradient><linearGradient id="c" x1="192.3" y1="139.7" x2="556.3" y2="503.8" gradientUnits="userSpaceOnUse"><stop stop-color="#562BFF"/><stop offset="1" stop-color="#7DA5FF"/></linearGradient><linearGradient id="d" x1="363.1" y1="492.1" x2="384.7" y2="513.7" gradientUnits="userSpaceOnUse"><stop stop-color="#A7C8FF"/><stop offset="1" stop-color="#D8E9FF"/></linearGradient><linearGradient id="e" x1="310" y1="512.8" x2="437.7" y2="640.5" gradientUnits="userSpaceOnUse"><stop stop-color="#A7C8FF"/><stop offset="1" stop-color="#73ABFF"/></linearGradient><linearGradient id="f" x1="518.6" y1="398.5" x2="700.5" y2="580.5" gradientUnits="userSpaceOnUse"><stop stop-color="#562BFF"/><stop offset="1" stop-color="#7DA5FF"/></linearGradient><linearGradient id="h" x1="561.4" y1="441.7" x2="657.8" y2="538.2" gradientUnits="userSpaceOnUse"><stop stop-color="#35FFFF" stop-opacity=".5"/><stop offset="1" stop-color="#35E6BB"/></linearGradient><linearGradient id="k" x1="228.9" y1="121.6" x2="484.3" y2="377.1" gradientUnits="userSpaceOnUse"><stop stop-color="#35C9E2" stop-opacity=".5"/><stop offset="1" stop-color="#35E6BB"/></linearGradient><linearGradient id="m" x1="38.1" y1="231.9" x2="154.5" y2="348.4" gradientUnits="userSpaceOnUse"><stop stop-color="#35C9E2" stop-opacity=".5"/><stop offset="1" stop-color="#35E6BB"/></linearGradient><linearGradient id="p" x1="163.2" y1="374.4" x2="287.8" y2="499" gradientUnits="userSpaceOnUse"><stop stop-color="#35C9E2" stop-opacity=".5"/><stop offset="1" stop-color="#35E6BB"/></linearGradient><linearGradient id="s" x1="559" y1="85.2" x2="724.5" y2="250.7" gradientUnits="userSpaceOnUse"><stop stop-color="#35C9E2" stop-opacity=".5"/><stop offset="1" stop-color="#35E6BB"/></linearGradient><linearGradient id="v" x1="38.1" y1="77.3" x2="154.5" y2="193.7" gradientUnits="userSpaceOnUse"><stop stop-color="#35C9E2" stop-opacity=".5"/><stop offset="1" stop-color="#35E6BB"/></linearGradient><filter id="g" x="545.9" y="435.2" width="127.4" height="127.3" filterUnits="userSpaceOnUse" color-interpolation-filters="sRGB"><feFlood flood-opacity="0" result="BackgroundImageFix"/><feColorMatrix in="SourceAlpha" values="0 0 0 0 0 0 0 0 0 0 0 0 0 0 0 0 0 0 127 0" result="hardAlpha"/><feOffset dy="8.9"/><feGaussianBlur stdDeviation="5.3"/><feColorMatrix values="0 0 0 0 0.0666667 0 0 0 0 0.447059 0 0 0 0 0.835294 0 0 0 1 0"/><feBlend in2="BackgroundImageFix" result="effect1_dropShadow_37_7535"/><feBlend in="SourceGraphic" in2="effect1_dropShadow_37_7535" result="shape"/></filter><filter id="i" x="561.5" y="445.6" width="96.2" height="96.2" filterUnits="userSpaceOnUse" color-interpolation-filters="sRGB"><feFlood flood-opacity="0" result="BackgroundImageFix"/><feColorMatrix in="SourceAlpha" values="0 0 0 0 0 0 0 0 0 0 0 0 0 0 0 0 0 0 127 0" result="hardAlpha"/><feOffset dy="3.8"/><feGaussianBlur stdDeviation="3.8"/><feColorMatrix values="0 0 0 0 0.117647 0 0 0 0 0.521569 0 0 0 0 1 0 0 0 1 0"/><feBlend in2="BackgroundImageFix" result="effect1_dropShadow_37_7535"/><feBlend in="SourceGraphic" in2="effect1_dropShadow_37_7535" result="shape"/></filter><filter id="j" x="184.8" y="143.6" width="343.6" height="229.1" filterUnits="userSpaceOnUse" color-interpolation-filters="sRGB"><feFlood flood-opacity="0" result="BackgroundImageFix"/><feColorMatrix in="SourceAlpha" values="0 0 0 0 0 0 0 0 0 0 0 0 0 0 0 0 0 0 127 0" result="hardAlpha"/><feOffset dy="8.9"/><feGaussianBlur stdDeviation="5.3"/><feColorMatrix values="0 0 0 0 0.117647 0 0 0 0 0.521569 0 0 0 0 1 0 0 0 1 0"/><feBlend in2="BackgroundImageFix" result="effect1_dropShadow_37_7535"/><feBlend in="SourceGraphic" in2="effect1_dropShadow_37_7535" result="shape"/></filter><filter id="l" x="22.6" y="225.4" width="147.4" height="147.3" filterUnits="userSpaceOnUse" color-interpolation-filters="sRGB"><feFlood flood-opacity="0" result="BackgroundImageFix"/><feColorMatrix in="SourceAlpha" values="0 0 0 0 0 0 0 0 0 0 0 0 0 0 0 0 0 0 127 0" result="hardAlpha"/><feOffset dy="8.9"/><feGaussianBlur stdDeviation="5.3"/><feColorMatrix values="0 0 0 0 0.117647 0 0 0 0 0.521569 0 0 0 0 1 0 0 0 1 0"/><feBlend in2="BackgroundImageFix" result="effect1_dropShadow_37_7535"/><feBlend in="SourceGraphic" in2="effect1_dropShadow_37_7535" result="shape"/></filter><filter id="n" x="50.5" y="247.6" width="91.6" height="92.6" filterUnits="userSpaceOnUse" color-interpolation-filters="sRGB"><feFlood flood-opacity="0" result="BackgroundImageFix"/><feColorMatrix in="SourceAlpha" values="0 0 0 0 0 0 0 0 0 0 0 0 0 0 0 0 0 0 127 0" result="hardAlpha"/><feOffset dy="3.8"/><feGaussianBlur stdDeviation="3.8"/><feColorMatrix values="0 0 0 0 0.117647 0 0 0 0 0.521569 0 0 0 0 1 0 0 0 1 0"/><feBlend in2="BackgroundImageFix" result="effect1_dropShadow_37_7535"/><feBlend in="SourceGraphic" in2="effect1_dropShadow_37_7535" result="shape"/></filter><filter id="o" x="135.5" y="380.1" width="180.1" height="131" filterUnits="userSpaceOnUse" color-interpolation-filters="sRGB"><feFlood flood-opacity="0" result="BackgroundImageFix"/><feColorMatrix in="SourceAlpha" values="0 0 0 0 0 0 0 0 0 0 0 0 0 0 0 0 0 0 127 0" result="hardAlpha"/><feOffset dy="8.9"/><feGaussianBlur stdDeviation="5.3"/><feColorMatrix values="0 0 0 0 0.117647 0 0 0 0 0.521569 0 0 0 0 1 0 0 0 1 0"/><feBlend in2="BackgroundImageFix" result="effect1_dropShadow_37_7535"/><feBlend in="SourceGraphic" in2="effect1_dropShadow_37_7535" result="shape"/></filter><filter id="q" x="165.2" y="398.6" width="120.7" height="83.6" filterUnits="userSpaceOnUse" color-interpolation-filters="sRGB"><feFlood flood-opacity="0" result="BackgroundImageFix"/><feColorMatrix in="SourceAlpha" values="0 0 0 0 0 0 0 0 0 0 0 0 0 0 0 0 0 0 127 0" result="hardAlpha"/><feOffset dy="3.8"/><feGaussianBlur stdDeviation="3.8"/><feColorMatrix values="0 0 0 0 0.117647 0 0 0 0 0.521569 0 0 0 0 1 0 0 0 1 0"/><feBlend in2="BackgroundImageFix" result="effect1_dropShadow_37_7535"/><feBlend in="SourceGraphic" in2="effect1_dropShadow_37_7535" result="shape"/></filter><filter id="r" x="543.6" y="78.6" width="196.4" height="196.4" filterUnits="userSpaceOnUse" color-interpolation-filters="sRGB"><feFlood flood-opacity="0" result="BackgroundImageFix"/><feColorMatrix in="SourceAlpha" values="0 0 0 0 0 0 0 0 0 0 0 0 0 0 0 0 0 0 127 0" result="hardAlpha"/><feOffset dy="8.9"/><feGaussianBlur stdDeviation="5.3"/><feColorMatrix values="0 0 0 0 0.117647 0 0 0 0 0.521569 0 0 0 0 1 0 0 0 1 0"/><feBlend in2="BackgroundImageFix" result="effect1_dropShadow_37_7535"/><feBlend in="SourceGraphic" in2="effect1_dropShadow_37_7535" result="shape"/></filter><filter id="t" x="567.2" y="108.3" width="149.2" height="126.9" filterUnits="userSpaceOnUse" color-interpolation-filters="sRGB"><feFlood flood-opacity="0" result="BackgroundImageFix"/><feColorMatrix in="SourceAlpha" values="0 0 0 0 0 0 0 0 0 0 0 0 0 0 0 0 0 0 127 0" result="hardAlpha"/><feOffset dy="3.8"/><feGaussianBlur stdDeviation="3.8"/><feColorMatrix values="0 0 0 0 0.117647 0 0 0 0 0.521569 0 0 0 0 1 0 0 0 1 0"/><feBlend in2="BackgroundImageFix" result="effect1_dropShadow_37_7535"/><feBlend in="SourceGraphic" in2="effect1_dropShadow_37_7535" result="shape"/></filter><filter id="u" x="22.6" y="70.7" width="147.4" height="147.3" filterUnits="userSpaceOnUse" color-interpolation-filters="sRGB"><feFlood flood-opacity="0" result="BackgroundImageFix"/><feColorMatrix in="SourceAlpha" values="0 0 0 0 0 0 0 0 0 0 0 0 0 0 0 0 0 0 127 0" result="hardAlpha"/><feOffset dy="8.9"/><feGaussianBlur stdDeviation="5.3"/><feColorMatrix values="0 0 0 0 0.117647 0 0 0 0 0.521569 0 0 0 0 1 0 0 0 1 0"/><feBlend in2="BackgroundImageFix" result="effect1_dropShadow_37_7535"/><feBlend in="SourceGraphic" in2="effect1_dropShadow_37_7535" result="shape"/></filter></defs></svg>