<svg width="42" height="42" viewBox="0 0 42 42" fill="none" xmlns="http://www.w3.org/2000/svg">
<circle cx="21" cy="21" r="21" fill="white"/>
<path d="M30.1034 27.9492C30.1034 26.7969 29.3929 25.7431 28.2686 25.228L24.3161 23.4164C23.8054 23.1824 23.4827 22.7037 23.4827 22.1803V20.7586C23.5936 20.6429 23.721 20.4939 23.8568 20.3179C24.3955 19.6207 24.8027 18.8533 25.0853 18.0481C25.5922 17.9051 25.9654 17.4757 25.9654 16.9655V15.4483C25.9654 15.1145 25.8037 14.816 25.5517 14.6073V12.4138C25.5517 12.4138 26.0428 9 20.9999 9C15.9566 9 16.4482 12.4138 16.4482 12.4138V14.6073C16.1962 14.816 16.0344 15.1145 16.0344 15.4483V16.9655C16.0344 17.3653 16.2637 17.7169 16.6067 17.9202C17.0201 19.571 18.1034 20.7586 18.1034 20.7586V22.145C18.1034 22.6506 17.8021 23.116 17.3176 23.358L13.6261 25.2041C12.5598 25.7371 11.8965 26.7616 11.8965 27.8749V28.7241C11.8965 28.7241 11.8965 28.9733 11.8965 29.1034C11.8965 30.1507 15.9723 31 20.9999 31C26.0275 31 30.1034 30.1507 30.1034 29.1034C30.1034 28.9733 30.1034 28.7241 30.1034 28.7241V27.9492Z" fill="#40A800"/>
</svg>
