<svg width="42" height="42" viewBox="0 0 42 42" fill="none" xmlns="http://www.w3.org/2000/svg">
<circle cx="21" cy="21" r="21" fill="white"/>
<path d="M10.6364 28.3613H14.4546V19.0886L9 14.9977V26.725C9 27.6291 9.73228 28.3614 10.6364 28.3614V28.3613Z" fill="#4285F4"/>
<path d="M27.5454 28.3613H31.3636C32.2677 28.3613 33 27.629 33 26.725V14.9977L27.5454 19.0886V28.3613Z" fill="#34A853"/>
<path d="M27.5454 11.9977V19.0886L33 14.9977V12.8159C33 10.7936 30.6914 9.63861 29.0727 10.8523L27.5454 11.9977Z" fill="#FBBC04"/>
<path fill-rule="evenodd" clip-rule="evenodd" d="M14.4546 19.0886V11.9977L21 16.9068L27.5455 11.9977V19.0886L21 23.9977L14.4546 19.0886Z" fill="#EA4335"/>
<path d="M9 12.8159V14.9977L14.4546 19.0886V11.9977L12.9273 10.8523C11.3086 9.63862 9 10.7936 9 12.8158V12.8159Z" fill="#C5221F"/>
</svg>
