<svg width="42" height="42" viewBox="0 0 42 42" fill="none" xmlns="http://www.w3.org/2000/svg">
<circle cx="21" cy="21" r="21" fill="white"/>
<g clip-path="url(#clip0_217_467)">
<path fill-rule="evenodd" clip-rule="evenodd" d="M24.7498 30.75H17.2498C17.1845 30.747 17.168 30.7485 17.1035 30.7358C16.8868 30.6923 16.6925 30.5483 16.5883 30.3533C16.4848 30.159 16.472 29.9183 16.5568 29.7128C16.6595 29.4653 16.9033 29.2807 17.1763 29.2537C17.201 29.2515 17.225 29.2515 17.2498 29.25H18.1145L18.7603 25.377C18.7745 25.308 18.7933 25.2398 18.8233 25.176C18.9343 24.9443 19.1705 24.7777 19.4293 24.753C19.4533 24.7507 19.4765 24.7508 19.4998 24.75H22.4998C22.523 24.7508 22.5463 24.7522 22.5703 24.753C22.64 24.7635 22.709 24.7763 22.7743 24.8018C22.9925 24.888 23.1643 25.08 23.225 25.308C23.231 25.3305 23.2348 25.3538 23.2393 25.377L23.885 29.25H24.7498C24.7745 29.2515 24.7985 29.2522 24.8233 29.2537C24.8473 29.2575 24.872 29.2597 24.896 29.2642C25.1848 29.322 25.427 29.5598 25.4855 29.8538C25.5335 30.0945 25.454 30.357 25.28 30.5303C25.1758 30.6345 25.0408 30.7065 24.896 30.7358C24.8315 30.7485 24.815 30.747 24.7498 30.75V30.75Z" fill="#BDBDBD"/>
<path fill-rule="evenodd" clip-rule="evenodd" d="M21 24.75H22.5C22.5232 24.7508 22.5465 24.7522 22.5705 24.753C22.6402 24.7635 22.7092 24.7763 22.7745 24.8018C22.9927 24.888 23.1645 25.08 23.2252 25.308C23.2312 25.3305 23.235 25.3538 23.2395 25.377L23.8853 29.25H24.75L24.8235 29.2537C24.8475 29.2575 24.8722 29.2597 24.8962 29.2642C25.185 29.322 25.4273 29.5598 25.4858 29.8538C25.5338 30.0945 25.4543 30.357 25.2803 30.5303C25.176 30.6345 25.041 30.7065 24.8962 30.7358C24.8317 30.7485 24.8152 30.747 24.75 30.75H21V24.75V24.75Z" fill="#9E9E9E"/>
<path fill-rule="evenodd" clip-rule="evenodd" d="M30.0047 11.25C30.4667 11.2523 30.9257 11.4803 31.2047 11.856C31.3944 12.111 31.4987 12.4268 31.5002 12.7455C31.5062 16.7483 31.5062 20.7518 31.5002 24.7545C31.4979 25.2135 31.2752 25.6643 30.9092 25.9433C30.6512 26.1398 30.3309 26.2485 30.0047 26.25C24.0017 26.259 17.9987 26.259 11.9957 26.25C11.5277 26.2478 11.0649 26.016 10.7852 25.6298C10.6022 25.377 10.5017 25.0688 10.5002 24.7545C10.4934 20.7518 10.4934 16.7483 10.5002 12.7455C10.5017 12.366 10.6532 11.9895 10.9142 11.715C11.1917 11.424 11.5884 11.2523 11.9957 11.25C17.9987 11.241 24.0017 11.241 30.0047 11.25V11.25Z" fill="#E0E0E0"/>
<path fill-rule="evenodd" clip-rule="evenodd" d="M21 11.2433C24.0015 11.2433 27.003 11.2455 30.0045 11.25C30.4665 11.2523 30.9255 11.4803 31.2045 11.856C31.3943 12.111 31.4985 12.4268 31.5 12.7455C31.506 16.7483 31.506 20.7518 31.5 24.7545C31.4977 25.2135 31.275 25.6643 30.909 25.9433C30.651 26.1398 30.3308 26.2485 30.0045 26.25C27.003 26.2545 24.0015 26.2568 21 26.2568V11.2433V11.2433Z" fill="#BDBDBD"/>
<path d="M21 12.75H12V23.25H21V12.75Z" fill="#777777"/>
<path d="M30 12.75H21V23.25H30V12.75Z" fill="#4E4E4E"/>
</g>
<defs>
<clipPath id="clip0_217_467">
<rect width="24" height="24" fill="white" transform="translate(9 9)"/>
</clipPath>
</defs>
</svg>
