<svg width="42" height="42" viewBox="0 0 42 42" fill="none" xmlns="http://www.w3.org/2000/svg">
<circle cx="21" cy="21" r="21" fill="white"/>
<g clip-path="url(#clip0_211_413)">
<path d="M30.792 27.7035C30.429 28.542 29.9994 29.3139 29.5016 30.0235C28.8231 30.9908 28.2676 31.6605 27.8395 32.0323C27.1758 32.6426 26.4647 32.9552 25.7032 32.973C25.1566 32.973 24.4973 32.8175 23.73 32.5019C22.9601 32.1878 22.2525 32.0323 21.6056 32.0323C20.9271 32.0323 20.1994 32.1878 19.4211 32.5019C18.6415 32.8175 18.0136 32.9819 17.5334 32.9982C16.8032 33.0293 16.0754 32.7078 15.3489 32.0323C14.8852 31.6279 14.3052 30.9345 13.6104 29.9524C12.865 28.9035 12.2521 27.6872 11.772 26.3006C11.2578 24.8029 11 23.3526 11 21.9484C11 20.3401 11.3475 18.9528 12.0437 17.7904C12.5908 16.8566 13.3186 16.12 14.2295 15.5793C15.1405 15.0386 16.1247 14.763 17.1847 14.7454C17.7647 14.7454 18.5252 14.9248 19.4704 15.2774C20.4129 15.6312 21.0181 15.8106 21.2834 15.8106C21.4817 15.8106 22.154 15.6008 23.2937 15.1826C24.3714 14.7947 25.281 14.6342 26.0262 14.6974C28.0454 14.8604 29.5624 15.6563 30.5712 17.0904C28.7654 18.1846 27.8721 19.7171 27.8898 21.6831C27.9061 23.2145 28.4617 24.4888 29.5535 25.5006C30.0483 25.9703 30.6009 26.3332 31.2156 26.591C31.0823 26.9776 30.9416 27.348 30.792 27.7035V27.7035ZM26.161 9.48038C26.161 10.6807 25.7225 11.8013 24.8484 12.8386C23.7937 14.0718 22.5179 14.7844 21.1343 14.6719C21.1167 14.5279 21.1065 14.3764 21.1065 14.2171C21.1065 13.0649 21.6081 11.8317 22.4989 10.8235C22.9436 10.3129 23.5092 9.88847 24.1951 9.54986C24.8796 9.2163 25.5269 9.03183 26.1358 9.00024C26.1536 9.1607 26.161 9.32117 26.161 9.48037V9.48038Z" fill="black"/>
</g>
<defs>
<clipPath id="clip0_211_413">
<rect width="24" height="24" fill="white" transform="translate(9 9)"/>
</clipPath>
</defs>
</svg>
