<svg width="42" height="42" viewBox="0 0 42 42" fill="none" xmlns="http://www.w3.org/2000/svg">
<circle cx="21" cy="21" r="21" fill="white"/>
<g clip-path="url(#clip0_211_402)">
<path d="M9.12646 32.836V19.425L21.0187 26.4563L9.12646 32.836Z" fill="#FCD751"/>
<path d="M32.8595 32.836V19.425L20.9673 26.4563L32.8595 32.836Z" fill="#FCD751"/>
<path d="M9.12646 32.836L20.9671 26.4563L32.8593 32.836H9.12646Z" fill="#FFA229"/>
<path d="M20.9671 9.11255L9.12646 19.425L20.9671 26.4563L32.8593 19.425L20.9671 9.11255Z" fill="#FECA5C"/>
<path d="M20.9907 26.4422L30.2579 20.9625V12.3H11.8267V21.0235L20.9907 26.4422Z" fill="#F2F2F2"/>
<path d="M23.8781 15.9656H14.5781V16.3687H23.8781V15.9656Z" fill="#CDCCCA"/>
<path d="M26.7892 15.3187H25.0923V17.0156H26.7892V15.3187Z" fill="white"/>
<path d="M23.8781 18.5156H14.5781V18.9188H23.8781V18.5156Z" fill="#CDCCCA"/>
<path d="M26.7892 17.8688H25.0923V19.5656H26.7892V17.8688Z" fill="white"/>
<path d="M23.8781 20.7188H14.5781V21.1219H23.8781V20.7188Z" fill="#CDCCCA"/>
<path d="M23.8781 21.4078H14.5781V21.811H23.8781V21.4078Z" fill="#CDCCCA"/>
<path d="M26.7892 20.4141H25.0923V22.1109H26.7892V20.4141Z" fill="white"/>
<path d="M25.8514 16.7625L25.2139 16.1625L25.3732 15.9937L25.8279 16.425L26.4607 15.6609L26.6342 15.8062L25.8514 16.7625Z" fill="#333D47"/>
<path d="M25.8657 19.2656L25.2329 18.6656L25.3876 18.5016L25.847 18.9328L26.4751 18.1641L26.6532 18.3141L25.8657 19.2656Z" fill="#333D47"/>
<path d="M26.7892 23.011V22.9641H25.0923V24.0141L26.7892 23.011Z" fill="white"/>
<path d="M16.2046 23.611L16.889 24.0141H23.878V23.611H16.2046Z" fill="#CDCCCA"/>
</g>
<defs>
<clipPath id="clip0_211_402">
<rect width="24" height="24" fill="white" transform="translate(9 9)"/>
</clipPath>
</defs>
</svg>
