<svg width="42" height="42" viewBox="0 0 42 42" fill="none" xmlns="http://www.w3.org/2000/svg">
<circle cx="21" cy="21" r="21" fill="white"/>
<g clip-path="url(#clip0_211_401)">
<path d="M33.0001 21.0735C33.0001 14.4045 27.6271 8.99854 21.0001 8.99854C14.3701 9.00004 8.99707 14.4045 8.99707 21.075C8.99707 27.1005 13.3861 32.0955 19.1221 33.0015V24.564H16.0771V21.075H19.1251V18.4125C19.1251 15.387 20.9176 13.716 23.6581 13.716C24.9721 13.716 26.3446 13.9515 26.3446 13.9515V16.9215H24.8311C23.3416 16.9215 22.8766 17.853 22.8766 18.8085V21.0735H26.2036L25.6726 24.5625H22.8751V33C28.6111 32.094 33.0001 27.099 33.0001 21.0735Z" fill="#059BE5"/>
</g>
<defs>
<clipPath id="clip0_211_401">
<rect x="9" y="9" width="24" height="24" rx="12" fill="white"/>
</clipPath>
</defs>
</svg>
