<svg width="42" height="42" viewBox="0 0 42 42" fill="none" xmlns="http://www.w3.org/2000/svg">
<circle cx="21" cy="21" r="21" fill="white"/>
<g clip-path="url(#clip0_211_402)">
<path d="M32.7662 18.6496H31.7996V18.5998H20.9998V23.3998H27.7815C26.7921 26.1939 24.1335 28.1997 20.9998 28.1997C17.0237 28.1997 13.7999 24.9759 13.7999 20.9998C13.7999 17.0237 17.0237 13.7999 20.9998 13.7999C22.8352 13.7999 24.5049 14.4923 25.7763 15.6233L29.1705 12.2291C27.0273 10.2318 24.1605 9 20.9998 9C14.3729 9 9 14.3729 9 20.9998C9 27.6267 14.3729 32.9996 20.9998 32.9996C27.6267 32.9996 32.9996 27.6267 32.9996 20.9998C32.9996 20.1952 32.9168 19.4098 32.7662 18.6496Z" fill="#FFC107"/>
<path d="M10.3828 15.4145L14.3253 18.3058C15.3921 15.6647 17.9757 13.7999 20.999 13.7999C22.8344 13.7999 24.5042 14.4923 25.7755 15.6233L29.1697 12.2291C27.0265 10.2318 24.1598 9 20.999 9C16.3899 9 12.3928 11.6022 10.3828 15.4145Z" fill="#FF3D00"/>
<path d="M21.0002 33.0001C24.0997 33.0001 26.9161 31.8139 29.0455 29.8849L25.3315 26.7422C24.0863 27.6892 22.5646 28.2014 21.0002 28.2001C17.8791 28.2001 15.2289 26.21 14.2305 23.4326L10.3174 26.4476C12.3033 30.3337 16.3365 33.0001 21.0002 33.0001Z" fill="#4CAF50"/>
<path d="M32.7664 18.6497H31.7998V18.5999H21V23.3998H27.7817C27.3084 24.7296 26.4559 25.8916 25.3295 26.7423L25.3313 26.7411L29.0453 29.8839C28.7825 30.1227 32.9998 26.9997 32.9998 20.9998C32.9998 20.1952 32.917 19.4098 32.7664 18.6497Z" fill="#1976D2"/>
</g>
<defs>
<clipPath id="clip0_211_402">
<rect x="9" y="9" width="24" height="24" rx="12" fill="white"/>
</clipPath>
</defs>
</svg>
